<svg version="1.1" xmlns="http://www.w3.org/2000/svg" viewBox="0 0 395 832" width="395" height="832"><!-- svg-source:excalidraw --><metadata></metadata><defs><style class="style-fonts">
      </style></defs><g stroke-linecap="round" transform="translate(10 10) rotate(0 187.5 406)"><path d="M32 0 C95.59 0, 159.18 0, 343 0 C364.33 0, 375 10.67, 375 32 C375 242.35, 375 452.7, 375 780 C375 801.33, 364.33 812, 343 812 C231.85 812, 120.7 812, 32 812 C10.67 812, 0 801.33, 0 780 C0 567.72, 0 355.44, 0 32 C0 10.67, 10.67 0, 32 0" stroke="none" stroke-width="0" fill="#f8f9fa"></path><path d="M32 0 C95.6 0, 159.2 0, 343 0 M32 0 C114.67 0, 197.33 0, 343 0 M343 0 C364.33 0, 375 10.67, 375 32 M343 0 C364.33 0, 375 10.67, 375 32 M375 32 C375 271.22, 375 510.43, 375 780 M375 32 C375 265.04, 375 498.08, 375 780 M375 780 C375 801.33, 364.33 812, 343 812 M375 780 C375 801.33, 364.33 812, 343 812 M343 812 C253.39 812, 163.77 812, 32 812 M343 812 C269.56 812, 196.11 812, 32 812 M32 812 C10.67 812, 0 801.33, 0 780 M32 812 C10.67 812, 0 801.33, 0 780 M0 780 C0 558.5, 0 336.99, 0 32 M0 780 C0 560.77, 0 341.54, 0 32 M0 32 C0 10.67, 10.67 0, 32 0 M0 32 C0 10.67, 10.67 0, 32 0" stroke="#1e1e1e" stroke-width="2" fill="none"></path></g><g stroke-linecap="round" transform="translate(10 10) rotate(0 187.5 48)"><path d="M0 0 L375 0 L375 96 L0 96" stroke="none" stroke-width="0" fill="#ffffff"></path><path d="M0 0 C76.69 0, 153.38 0, 375 0 M0 0 C126.68 0, 253.35 0, 375 0 M375 0 C375 19.56, 375 39.11, 375 96 M375 0 C375 22.29, 375 44.57, 375 96 M375 96 C286.53 96, 198.05 96, 0 96 M375 96 C228.35 96, 81.71 96, 0 96 M0 96 C0 60.57, 0 25.14, 0 0 M0 96 C0 74.45, 0 52.9, 0 0" stroke="transparent" stroke-width="2" fill="none"></path></g><g transform="translate(140 62) rotate(0 57.5 14)"><text x="57.5" y="19.9404296875" font-family="Helvetica, Segoe UI Emoji" font-size="22px" fill="#1e1e1e" text-anchor="middle" style="white-space: pre;" direction="ltr" dominant-baseline="alphabetic">anonymix</text></g><g stroke-linecap="round" transform="translate(337 60) rotate(0 16 16)"><path d="M32 16 C32 16.93, 31.92 17.87, 31.76 18.78 C31.6 19.69, 31.35 20.6, 31.04 21.47 C30.72 22.34, 30.32 23.2, 29.86 24 C29.39 24.8, 28.85 25.58, 28.26 26.28 C27.66 26.99, 26.99 27.66, 26.28 28.26 C25.58 28.85, 24.8 29.39, 24 29.86 C23.2 30.32, 22.34 30.72, 21.47 31.04 C20.6 31.35, 19.69 31.6, 18.78 31.76 C17.87 31.92, 16.93 32, 16 32 C15.07 32, 14.13 31.92, 13.22 31.76 C12.31 31.6, 11.4 31.35, 10.53 31.04 C9.66 30.72, 8.8 30.32, 8 29.86 C7.2 29.39, 6.42 28.85, 5.72 28.26 C5.01 27.66, 4.34 26.99, 3.74 26.28 C3.15 25.58, 2.61 24.8, 2.14 24 C1.68 23.2, 1.28 22.34, 0.96 21.47 C0.65 20.6, 0.4 19.69, 0.24 18.78 C0.08 17.87, 0 16.93, 0 16 C0 15.07, 0.08 14.13, 0.24 13.22 C0.4 12.31, 0.65 11.4, 0.96 10.53 C1.28 9.66, 1.68 8.8, 2.14 8 C2.61 7.2, 3.15 6.42, 3.74 5.72 C4.34 5.01, 5.01 4.34, 5.72 3.74 C6.42 3.15, 7.2 2.61, 8 2.14 C8.8 1.68, 9.66 1.28, 10.53 0.96 C11.4 0.65, 12.31 0.4, 13.22 0.24 C14.13 0.08, 15.07 0, 16 0 C16.93 0, 17.87 0.08, 18.78 0.24 C19.69 0.4, 20.6 0.65, 21.47 0.96 C22.34 1.28, 23.2 1.68, 24 2.14 C24.8 2.61, 25.58 3.15, 26.28 3.74 C26.99 4.34, 27.66 5.01, 28.26 5.72 C28.85 6.42, 29.39 7.2, 29.86 8 C30.32 8.8, 30.72 9.66, 31.04 10.53 C31.35 11.4, 31.6 12.31, 31.76 13.22 C31.92 14.13, 31.96 15.54, 32 16 C32.04 16.46, 32.04 15.54, 32 16" stroke="none" stroke-width="0" fill="#dee2e6"></path><path d="M32 16 C32 16.93, 31.92 17.87, 31.76 18.78 C31.6 19.69, 31.35 20.6, 31.04 21.47 C30.72 22.34, 30.32 23.2, 29.86 24 C29.39 24.8, 28.85 25.58, 28.26 26.28 C27.66 26.99, 26.99 27.66, 26.28 28.26 C25.58 28.85, 24.8 29.39, 24 29.86 C23.2 30.32, 22.34 30.72, 21.47 31.04 C20.6 31.35, 19.69 31.6, 18.78 31.76 C17.87 31.92, 16.93 32, 16 32 C15.07 32, 14.13 31.92, 13.22 31.76 C12.31 31.6, 11.4 31.35, 10.53 31.04 C9.66 30.72, 8.8 30.32, 8 29.86 C7.2 29.39, 6.42 28.85, 5.72 28.26 C5.01 27.66, 4.34 26.99, 3.74 26.28 C3.15 25.58, 2.61 24.8, 2.14 24 C1.68 23.2, 1.28 22.34, 0.96 21.47 C0.65 20.6, 0.4 19.69, 0.24 18.78 C0.08 17.87, 0 16.93, 0 16 C0 15.07, 0.08 14.13, 0.24 13.22 C0.4 12.31, 0.65 11.4, 0.96 10.53 C1.28 9.66, 1.68 8.8, 2.14 8 C2.61 7.2, 3.15 6.42, 3.74 5.72 C4.34 5.01, 5.01 4.34, 5.72 3.74 C6.42 3.15, 7.2 2.61, 8 2.14 C8.8 1.68, 9.66 1.28, 10.53 0.96 C11.4 0.65, 12.31 0.4, 13.22 0.24 C14.13 0.08, 15.07 0, 16 0 C16.93 0, 17.87 0.08, 18.78 0.24 C19.69 0.4, 20.6 0.65, 21.47 0.96 C22.34 1.28, 23.2 1.68, 24 2.14 C24.8 2.61, 25.58 3.15, 26.28 3.74 C26.99 4.34, 27.66 5.01, 28.26 5.72 C28.85 6.42, 29.39 7.2, 29.86 8 C30.32 8.8, 30.72 9.66, 31.04 10.53 C31.35 11.4, 31.6 12.31, 31.76 13.22 C31.92 14.13, 31.96 15.54, 32 16 C32.04 16.46, 32.04 15.54, 32 16" stroke="#868e96" stroke-width="1" fill="none"></path></g><g stroke-linecap="round"><g transform="translate(10 106) rotate(0 187.5 0)"><path d="M0 0 C76.69 0, 153.39 0, 375 0 M0 0 C132.67 0, 265.34 0, 375 0" stroke="#dee2e6" stroke-width="1" fill="none"></path></g></g><mask></mask><g stroke-linecap="round" transform="translate(30 126) rotate(0 167.5 76)"><path d="M12 0 C132.96 0, 253.93 0, 323 0 C331 0, 335 4, 335 12 C335 42.35, 335 72.69, 335 140 C335 148, 331 152, 323 152 C205.01 152, 87.03 152, 12 152 C4 152, 0 148, 0 140 C0 98.48, 0 56.97, 0 12 C0 4, 4 0, 12 0" stroke="none" stroke-width="0" fill="#ffffff"></path><path d="M12 0 C77 0, 142 0, 323 0 M12 0 C92.74 0, 173.49 0, 323 0 M323 0 C331 0, 335 4, 335 12 M323 0 C331 0, 335 4, 335 12 M335 12 C335 40.43, 335 68.86, 335 140 M335 12 C335 41.9, 335 71.8, 335 140 M335 140 C335 148, 331 152, 323 152 M335 140 C335 148, 331 152, 323 152 M323 152 C210.85 152, 98.69 152, 12 152 M323 152 C243.23 152, 163.47 152, 12 152 M12 152 C4 152, 0 148, 0 140 M12 152 C4 152, 0 148, 0 140 M0 140 C0 100.9, 0 61.81, 0 12 M0 140 C0 100.35, 0 60.7, 0 12 M0 12 C0 4, 4 0, 12 0 M0 12 C0 4, 4 0, 12 0" stroke="#dee2e6" stroke-width="1" fill="none"></path></g><g transform="translate(46 138) rotate(0 100 10)"><text x="0" y="14.3203125" font-family="Helvetica, Segoe UI Emoji" font-size="16px" fill="#1e1e1e" text-anchor="start" style="white-space: pre;" direction="ltr" dominant-baseline="alphabetic">Friday Night Jams</text></g><g stroke-linecap="round"><g transform="translate(335 141) rotate(0 7 0)"><path d="M0 0 C2.93 0, 5.85 0, 14 0 M0 0 C2.85 0, 5.7 0, 14 0" stroke="#adb5bd" stroke-width="2" fill="none"></path></g></g><mask></mask><g stroke-linecap="round"><g transform="translate(335 146) rotate(0 7 0)"><path d="M0 0 C2.93 0, 5.85 0, 14 0 M0 0 C3.86 0, 7.72 0, 14 0" stroke="#adb5bd" stroke-width="2" fill="none"></path></g></g><mask></mask><g stroke-linecap="round"><g transform="translate(335 151) rotate(0 7 0)"><path d="M0 0 C2.93 0, 5.85 0, 14 0 M0 0 C4.87 0, 9.73 0, 14 0" stroke="#adb5bd" stroke-width="2" fill="none"></path></g></g><mask></mask><g stroke-linecap="round" transform="translate(46 166) rotate(0 11 11)"><path d="M22 11 C22 11.64, 21.94 12.28, 21.83 12.91 C21.72 13.54, 21.55 14.16, 21.34 14.76 C21.12 15.36, 20.84 15.95, 20.53 16.5 C20.21 17.05, 19.84 17.58, 19.43 18.07 C19.02 18.56, 18.56 19.02, 18.07 19.43 C17.58 19.84, 17.05 20.21, 16.5 20.53 C15.95 20.84, 15.36 21.12, 14.76 21.34 C14.16 21.55, 13.54 21.72, 12.91 21.83 C12.28 21.94, 11.64 22, 11 22 C10.36 22, 9.72 21.94, 9.09 21.83 C8.46 21.72, 7.84 21.55, 7.24 21.34 C6.64 21.12, 6.05 20.84, 5.5 20.53 C4.95 20.21, 4.42 19.84, 3.93 19.43 C3.44 19.02, 2.98 18.56, 2.57 18.07 C2.16 17.58, 1.79 17.05, 1.47 16.5 C1.16 15.95, 0.88 15.36, 0.66 14.76 C0.45 14.16, 0.28 13.54, 0.17 12.91 C0.06 12.28, 0 11.64, 0 11 C0 10.36, 0.06 9.72, 0.17 9.09 C0.28 8.46, 0.45 7.84, 0.66 7.24 C0.88 6.64, 1.16 6.05, 1.47 5.5 C1.79 4.95, 2.16 4.42, 2.57 3.93 C2.98 3.44, 3.44 2.98, 3.93 2.57 C4.42 2.16, 4.95 1.79, 5.5 1.47 C6.05 1.16, 6.64 0.88, 7.24 0.66 C7.84 0.45, 8.46 0.28, 9.09 0.17 C9.72 0.06, 10.36 0, 11 0 C11.64 0, 12.28 0.06, 12.91 0.17 C13.54 0.28, 14.16 0.45, 14.76 0.66 C15.36 0.88, 15.95 1.16, 16.5 1.47 C17.05 1.79, 17.58 2.16, 18.07 2.57 C18.56 2.98, 19.02 3.44, 19.43 3.93 C19.84 4.42, 20.21 4.95, 20.53 5.5 C20.84 6.05, 21.12 6.64, 21.34 7.24 C21.55 7.84, 21.72 8.46, 21.83 9.09 C21.94 9.72, 21.97 10.68, 22 11 C22.03 11.32, 22.03 10.68, 22 11" stroke="none" stroke-width="0" fill="#e9ecef"></path><path d="M22 11 C22 11.64, 21.94 12.28, 21.83 12.91 C21.72 13.54, 21.55 14.16, 21.34 14.76 C21.12 15.36, 20.84 15.95, 20.53 16.5 C20.21 17.05, 19.84 17.58, 19.43 18.07 C19.02 18.56, 18.56 19.02, 18.07 19.43 C17.58 19.84, 17.05 20.21, 16.5 20.53 C15.95 20.84, 15.36 21.12, 14.76 21.34 C14.16 21.55, 13.54 21.72, 12.91 21.83 C12.28 21.94, 11.64 22, 11 22 C10.36 22, 9.72 21.94, 9.09 21.83 C8.46 21.72, 7.84 21.55, 7.24 21.34 C6.64 21.12, 6.05 20.84, 5.5 20.53 C4.95 20.21, 4.42 19.84, 3.93 19.43 C3.44 19.02, 2.98 18.56, 2.57 18.07 C2.16 17.58, 1.79 17.05, 1.47 16.5 C1.16 15.95, 0.88 15.36, 0.66 14.76 C0.45 14.16, 0.28 13.54, 0.17 12.91 C0.06 12.28, 0 11.64, 0 11 C0 10.36, 0.06 9.72, 0.17 9.09 C0.28 8.46, 0.45 7.84, 0.66 7.24 C0.88 6.64, 1.16 6.05, 1.47 5.5 C1.79 4.95, 2.16 4.42, 2.57 3.93 C2.98 3.44, 3.44 2.98, 3.93 2.57 C4.42 2.16, 4.95 1.79, 5.5 1.47 C6.05 1.16, 6.64 0.88, 7.24 0.66 C7.84 0.45, 8.46 0.28, 9.09 0.17 C9.72 0.06, 10.36 0, 11 0 C11.64 0, 12.28 0.06, 12.91 0.17 C13.54 0.28, 14.16 0.45, 14.76 0.66 C15.36 0.88, 15.95 1.16, 16.5 1.47 C17.05 1.79, 17.58 2.16, 18.07 2.57 C18.56 2.98, 19.02 3.44, 19.43 3.93 C19.84 4.42, 20.21 4.95, 20.53 5.5 C20.84 6.05, 21.12 6.64, 21.34 7.24 C21.55 7.84, 21.72 8.46, 21.83 9.09 C21.94 9.72, 21.97 10.68, 22 11 C22.03 11.32, 22.03 10.68, 22 11" stroke="#ffffff" stroke-width="2" fill="none"></path></g><g stroke-linecap="round" transform="translate(60 166) rotate(0 11 11)"><path d="M22 11 C22 11.64, 21.94 12.28, 21.83 12.91 C21.72 13.54, 21.55 14.16, 21.34 14.76 C21.12 15.36, 20.84 15.95, 20.53 16.5 C20.21 17.05, 19.84 17.58, 19.43 18.07 C19.02 18.56, 18.56 19.02, 18.07 19.43 C17.58 19.84, 17.05 20.21, 16.5 20.53 C15.95 20.84, 15.36 21.12, 14.76 21.34 C14.16 21.55, 13.54 21.72, 12.91 21.83 C12.28 21.94, 11.64 22, 11 22 C10.36 22, 9.72 21.94, 9.09 21.83 C8.46 21.72, 7.84 21.55, 7.24 21.34 C6.64 21.12, 6.05 20.84, 5.5 20.53 C4.95 20.21, 4.42 19.84, 3.93 19.43 C3.44 19.02, 2.98 18.56, 2.57 18.07 C2.16 17.58, 1.79 17.05, 1.47 16.5 C1.16 15.95, 0.88 15.36, 0.66 14.76 C0.45 14.16, 0.28 13.54, 0.17 12.91 C0.06 12.28, 0 11.64, 0 11 C0 10.36, 0.06 9.72, 0.17 9.09 C0.28 8.46, 0.45 7.84, 0.66 7.24 C0.88 6.64, 1.16 6.05, 1.47 5.5 C1.79 4.95, 2.16 4.42, 2.57 3.93 C2.98 3.44, 3.44 2.98, 3.93 2.57 C4.42 2.16, 4.95 1.79, 5.5 1.47 C6.05 1.16, 6.64 0.88, 7.24 0.66 C7.84 0.45, 8.46 0.28, 9.09 0.17 C9.72 0.06, 10.36 0, 11 0 C11.64 0, 12.28 0.06, 12.91 0.17 C13.54 0.28, 14.16 0.45, 14.76 0.66 C15.36 0.88, 15.95 1.16, 16.5 1.47 C17.05 1.79, 17.58 2.16, 18.07 2.57 C18.56 2.98, 19.02 3.44, 19.43 3.93 C19.84 4.42, 20.21 4.95, 20.53 5.5 C20.84 6.05, 21.12 6.64, 21.34 7.24 C21.55 7.84, 21.72 8.46, 21.83 9.09 C21.94 9.72, 21.97 10.68, 22 11 C22.03 11.32, 22.03 10.68, 22 11" stroke="none" stroke-width="0" fill="#d0bfff"></path><path d="M22 11 C22 11.64, 21.94 12.28, 21.83 12.91 C21.72 13.54, 21.55 14.16, 21.34 14.76 C21.12 15.36, 20.84 15.95, 20.53 16.5 C20.21 17.05, 19.84 17.58, 19.43 18.07 C19.02 18.56, 18.56 19.02, 18.07 19.43 C17.58 19.84, 17.05 20.21, 16.5 20.53 C15.95 20.84, 15.36 21.12, 14.76 21.34 C14.16 21.55, 13.54 21.72, 12.91 21.83 C12.28 21.94, 11.64 22, 11 22 C10.36 22, 9.72 21.94, 9.09 21.83 C8.46 21.72, 7.84 21.55, 7.24 21.34 C6.64 21.12, 6.05 20.84, 5.5 20.53 C4.95 20.21, 4.42 19.84, 3.93 19.43 C3.44 19.02, 2.98 18.56, 2.57 18.07 C2.16 17.58, 1.79 17.05, 1.47 16.5 C1.16 15.95, 0.88 15.36, 0.66 14.76 C0.45 14.16, 0.28 13.54, 0.17 12.91 C0.06 12.28, 0 11.64, 0 11 C0 10.36, 0.06 9.72, 0.17 9.09 C0.28 8.46, 0.45 7.84, 0.66 7.24 C0.88 6.64, 1.16 6.05, 1.47 5.5 C1.79 4.95, 2.16 4.42, 2.57 3.93 C2.98 3.44, 3.44 2.98, 3.93 2.57 C4.42 2.16, 4.95 1.79, 5.5 1.47 C6.05 1.16, 6.64 0.88, 7.24 0.66 C7.84 0.45, 8.46 0.28, 9.09 0.17 C9.72 0.06, 10.36 0, 11 0 C11.64 0, 12.28 0.06, 12.91 0.17 C13.54 0.28, 14.16 0.45, 14.76 0.66 C15.36 0.88, 15.95 1.16, 16.5 1.47 C17.05 1.79, 17.58 2.16, 18.07 2.57 C18.56 2.98, 19.02 3.44, 19.43 3.93 C19.84 4.42, 20.21 4.95, 20.53 5.5 C20.84 6.05, 21.12 6.64, 21.34 7.24 C21.55 7.84, 21.72 8.46, 21.83 9.09 C21.94 9.72, 21.97 10.68, 22 11 C22.03 11.32, 22.03 10.68, 22 11" stroke="#ffffff" stroke-width="2" fill="none"></path></g><g stroke-linecap="round" transform="translate(74 166) rotate(0 11 11)"><path d="M22 11 C22 11.64, 21.94 12.28, 21.83 12.91 C21.72 13.54, 21.55 14.16, 21.34 14.76 C21.12 15.36, 20.84 15.95, 20.53 16.5 C20.21 17.05, 19.84 17.58, 19.43 18.07 C19.02 18.56, 18.56 19.02, 18.07 19.43 C17.58 19.84, 17.05 20.21, 16.5 20.53 C15.95 20.84, 15.36 21.12, 14.76 21.34 C14.16 21.55, 13.54 21.72, 12.91 21.83 C12.28 21.94, 11.64 22, 11 22 C10.36 22, 9.72 21.94, 9.09 21.83 C8.46 21.72, 7.84 21.55, 7.24 21.34 C6.64 21.12, 6.05 20.84, 5.5 20.53 C4.95 20.21, 4.42 19.84, 3.93 19.43 C3.44 19.02, 2.98 18.56, 2.57 18.07 C2.16 17.58, 1.79 17.05, 1.47 16.5 C1.16 15.95, 0.88 15.36, 0.66 14.76 C0.45 14.16, 0.28 13.54, 0.17 12.91 C0.06 12.28, 0 11.64, 0 11 C0 10.36, 0.06 9.72, 0.17 9.09 C0.28 8.46, 0.45 7.84, 0.66 7.24 C0.88 6.64, 1.16 6.05, 1.47 5.5 C1.79 4.95, 2.16 4.42, 2.57 3.93 C2.98 3.44, 3.44 2.98, 3.93 2.57 C4.42 2.16, 4.95 1.79, 5.5 1.47 C6.05 1.16, 6.64 0.88, 7.24 0.66 C7.84 0.45, 8.46 0.28, 9.09 0.17 C9.72 0.06, 10.36 0, 11 0 C11.64 0, 12.28 0.06, 12.91 0.17 C13.54 0.28, 14.16 0.45, 14.76 0.66 C15.36 0.88, 15.95 1.16, 16.5 1.47 C17.05 1.79, 17.58 2.16, 18.07 2.57 C18.56 2.98, 19.02 3.44, 19.43 3.93 C19.84 4.42, 20.21 4.95, 20.53 5.5 C20.84 6.05, 21.12 6.64, 21.34 7.24 C21.55 7.84, 21.72 8.46, 21.83 9.09 C21.94 9.72, 21.97 10.68, 22 11 C22.03 11.32, 22.03 10.68, 22 11" stroke="none" stroke-width="0" fill="#a5d8ff"></path><path d="M22 11 C22 11.64, 21.94 12.28, 21.83 12.91 C21.72 13.54, 21.55 14.16, 21.34 14.76 C21.12 15.36, 20.84 15.95, 20.53 16.5 C20.21 17.05, 19.84 17.58, 19.43 18.07 C19.02 18.56, 18.56 19.02, 18.07 19.43 C17.58 19.84, 17.05 20.21, 16.5 20.53 C15.95 20.84, 15.36 21.12, 14.76 21.34 C14.16 21.55, 13.54 21.72, 12.91 21.83 C12.28 21.94, 11.64 22, 11 22 C10.36 22, 9.72 21.94, 9.09 21.83 C8.46 21.72, 7.84 21.55, 7.24 21.34 C6.64 21.12, 6.05 20.84, 5.5 20.53 C4.95 20.21, 4.42 19.84, 3.93 19.43 C3.44 19.02, 2.98 18.56, 2.57 18.07 C2.16 17.58, 1.79 17.05, 1.47 16.5 C1.16 15.95, 0.88 15.36, 0.66 14.76 C0.45 14.16, 0.28 13.54, 0.17 12.91 C0.06 12.28, 0 11.64, 0 11 C0 10.36, 0.06 9.72, 0.17 9.09 C0.28 8.46, 0.45 7.84, 0.66 7.24 C0.88 6.64, 1.16 6.05, 1.47 5.5 C1.79 4.95, 2.16 4.42, 2.57 3.93 C2.98 3.44, 3.44 2.98, 3.93 2.57 C4.42 2.16, 4.95 1.79, 5.5 1.47 C6.05 1.16, 6.64 0.88, 7.24 0.66 C7.84 0.45, 8.46 0.28, 9.09 0.17 C9.72 0.06, 10.36 0, 11 0 C11.64 0, 12.28 0.06, 12.91 0.17 C13.54 0.28, 14.16 0.45, 14.76 0.66 C15.36 0.88, 15.95 1.16, 16.5 1.47 C17.05 1.79, 17.58 2.16, 18.07 2.57 C18.56 2.98, 19.02 3.44, 19.43 3.93 C19.84 4.42, 20.21 4.95, 20.53 5.5 C20.84 6.05, 21.12 6.64, 21.34 7.24 C21.55 7.84, 21.72 8.46, 21.83 9.09 C21.94 9.72, 21.97 10.68, 22 11 C22.03 11.32, 22.03 10.68, 22 11" stroke="#ffffff" stroke-width="2" fill="none"></path></g><g stroke-linecap="round" transform="translate(88 166) rotate(0 11 11)"><path d="M22 11 C22 11.64, 21.94 12.28, 21.83 12.91 C21.72 13.54, 21.55 14.16, 21.34 14.76 C21.12 15.36, 20.84 15.95, 20.53 16.5 C20.21 17.05, 19.84 17.58, 19.43 18.07 C19.02 18.56, 18.56 19.02, 18.07 19.43 C17.58 19.84, 17.05 20.21, 16.5 20.53 C15.95 20.84, 15.36 21.12, 14.76 21.34 C14.16 21.55, 13.54 21.72, 12.91 21.83 C12.28 21.94, 11.64 22, 11 22 C10.36 22, 9.72 21.94, 9.09 21.83 C8.46 21.72, 7.84 21.55, 7.24 21.34 C6.64 21.12, 6.05 20.84, 5.5 20.53 C4.95 20.21, 4.42 19.84, 3.93 19.43 C3.44 19.02, 2.98 18.56, 2.57 18.07 C2.16 17.58, 1.79 17.05, 1.47 16.5 C1.16 15.95, 0.88 15.36, 0.66 14.76 C0.45 14.16, 0.28 13.54, 0.17 12.91 C0.06 12.28, 0 11.64, 0 11 C0 10.36, 0.06 9.72, 0.17 9.09 C0.28 8.46, 0.45 7.84, 0.66 7.24 C0.88 6.64, 1.16 6.05, 1.47 5.5 C1.79 4.95, 2.16 4.42, 2.57 3.93 C2.98 3.44, 3.44 2.98, 3.93 2.57 C4.42 2.16, 4.95 1.79, 5.5 1.47 C6.05 1.16, 6.64 0.88, 7.24 0.66 C7.84 0.45, 8.46 0.28, 9.09 0.17 C9.72 0.06, 10.36 0, 11 0 C11.64 0, 12.28 0.06, 12.91 0.17 C13.54 0.28, 14.16 0.45, 14.76 0.66 C15.36 0.88, 15.95 1.16, 16.5 1.47 C17.05 1.79, 17.58 2.16, 18.07 2.57 C18.56 2.98, 19.02 3.44, 19.43 3.93 C19.84 4.42, 20.21 4.95, 20.53 5.5 C20.84 6.05, 21.12 6.64, 21.34 7.24 C21.55 7.84, 21.72 8.46, 21.83 9.09 C21.94 9.72, 21.97 10.68, 22 11 C22.03 11.32, 22.03 10.68, 22 11" stroke="none" stroke-width="0" fill="#ffc9c9"></path><path d="M22 11 C22 11.64, 21.94 12.28, 21.83 12.91 C21.72 13.54, 21.55 14.16, 21.34 14.76 C21.12 15.36, 20.84 15.95, 20.53 16.5 C20.21 17.05, 19.84 17.58, 19.43 18.07 C19.02 18.56, 18.56 19.02, 18.07 19.43 C17.58 19.84, 17.05 20.21, 16.5 20.53 C15.95 20.84, 15.36 21.12, 14.76 21.34 C14.16 21.55, 13.54 21.72, 12.91 21.83 C12.28 21.94, 11.64 22, 11 22 C10.36 22, 9.72 21.94, 9.09 21.83 C8.46 21.72, 7.84 21.55, 7.24 21.34 C6.64 21.12, 6.05 20.84, 5.5 20.53 C4.95 20.21, 4.42 19.84, 3.93 19.43 C3.44 19.02, 2.98 18.56, 2.57 18.07 C2.16 17.58, 1.79 17.05, 1.47 16.5 C1.16 15.95, 0.88 15.36, 0.66 14.76 C0.45 14.16, 0.28 13.54, 0.17 12.91 C0.06 12.28, 0 11.64, 0 11 C0 10.36, 0.06 9.72, 0.17 9.09 C0.28 8.46, 0.45 7.84, 0.66 7.24 C0.88 6.64, 1.16 6.05, 1.47 5.5 C1.79 4.95, 2.16 4.42, 2.57 3.93 C2.98 3.44, 3.44 2.98, 3.93 2.57 C4.42 2.16, 4.95 1.79, 5.5 1.47 C6.05 1.16, 6.64 0.88, 7.24 0.66 C7.84 0.45, 8.46 0.28, 9.09 0.17 C9.72 0.06, 10.36 0, 11 0 C11.64 0, 12.28 0.06, 12.91 0.17 C13.54 0.28, 14.16 0.45, 14.76 0.66 C15.36 0.88, 15.95 1.16, 16.5 1.47 C17.05 1.79, 17.58 2.16, 18.07 2.57 C18.56 2.98, 19.02 3.44, 19.43 3.93 C19.84 4.42, 20.21 4.95, 20.53 5.5 C20.84 6.05, 21.12 6.64, 21.34 7.24 C21.55 7.84, 21.72 8.46, 21.83 9.09 C21.94 9.72, 21.97 10.68, 22 11 C22.03 11.32, 22.03 10.68, 22 11" stroke="#ffffff" stroke-width="2" fill="none"></path></g><g stroke-linecap="round" transform="translate(102 166) rotate(0 11 11)"><path d="M22 11 C22 11.64, 21.94 12.28, 21.83 12.91 C21.72 13.54, 21.55 14.16, 21.34 14.76 C21.12 15.36, 20.84 15.95, 20.53 16.5 C20.21 17.05, 19.84 17.58, 19.43 18.07 C19.02 18.56, 18.56 19.02, 18.07 19.43 C17.58 19.84, 17.05 20.21, 16.5 20.53 C15.95 20.84, 15.36 21.12, 14.76 21.34 C14.16 21.55, 13.54 21.72, 12.91 21.83 C12.28 21.94, 11.64 22, 11 22 C10.36 22, 9.72 21.94, 9.09 21.83 C8.46 21.72, 7.84 21.55, 7.24 21.34 C6.64 21.12, 6.05 20.84, 5.5 20.53 C4.95 20.21, 4.42 19.84, 3.93 19.43 C3.44 19.02, 2.98 18.56, 2.57 18.07 C2.16 17.58, 1.79 17.05, 1.47 16.5 C1.16 15.95, 0.88 15.36, 0.66 14.76 C0.45 14.16, 0.28 13.54, 0.17 12.91 C0.06 12.28, 0 11.64, 0 11 C0 10.36, 0.06 9.72, 0.17 9.09 C0.28 8.46, 0.45 7.84, 0.66 7.24 C0.88 6.64, 1.16 6.05, 1.47 5.5 C1.79 4.95, 2.16 4.42, 2.57 3.93 C2.98 3.44, 3.44 2.98, 3.93 2.57 C4.42 2.16, 4.95 1.79, 5.5 1.47 C6.05 1.16, 6.64 0.88, 7.24 0.66 C7.84 0.45, 8.46 0.28, 9.09 0.17 C9.72 0.06, 10.36 0, 11 0 C11.64 0, 12.28 0.06, 12.91 0.17 C13.54 0.28, 14.16 0.45, 14.76 0.66 C15.36 0.88, 15.95 1.16, 16.5 1.47 C17.05 1.79, 17.58 2.16, 18.07 2.57 C18.56 2.98, 19.02 3.44, 19.43 3.93 C19.84 4.42, 20.21 4.95, 20.53 5.5 C20.84 6.05, 21.12 6.64, 21.34 7.24 C21.55 7.84, 21.72 8.46, 21.83 9.09 C21.94 9.72, 21.97 10.68, 22 11 C22.03 11.32, 22.03 10.68, 22 11" stroke="none" stroke-width="0" fill="#ffec99"></path><path d="M22 11 C22 11.64, 21.94 12.28, 21.83 12.91 C21.72 13.54, 21.55 14.16, 21.34 14.76 C21.12 15.36, 20.84 15.95, 20.53 16.5 C20.21 17.05, 19.84 17.58, 19.43 18.07 C19.02 18.56, 18.56 19.02, 18.07 19.43 C17.58 19.84, 17.05 20.21, 16.5 20.53 C15.95 20.84, 15.36 21.12, 14.76 21.34 C14.16 21.55, 13.54 21.72, 12.91 21.83 C12.28 21.94, 11.64 22, 11 22 C10.36 22, 9.72 21.94, 9.09 21.83 C8.46 21.72, 7.84 21.55, 7.24 21.34 C6.64 21.12, 6.05 20.84, 5.5 20.53 C4.95 20.21, 4.42 19.84, 3.93 19.43 C3.44 19.02, 2.98 18.56, 2.57 18.07 C2.16 17.58, 1.79 17.05, 1.47 16.5 C1.16 15.95, 0.88 15.36, 0.66 14.76 C0.45 14.16, 0.28 13.54, 0.17 12.91 C0.06 12.28, 0 11.64, 0 11 C0 10.36, 0.06 9.72, 0.17 9.09 C0.28 8.46, 0.45 7.84, 0.66 7.24 C0.88 6.64, 1.16 6.05, 1.47 5.5 C1.79 4.95, 2.16 4.42, 2.57 3.93 C2.98 3.44, 3.44 2.98, 3.93 2.57 C4.42 2.16, 4.95 1.79, 5.5 1.47 C6.05 1.16, 6.64 0.88, 7.24 0.66 C7.84 0.45, 8.46 0.28, 9.09 0.17 C9.72 0.06, 10.36 0, 11 0 C11.64 0, 12.28 0.06, 12.91 0.17 C13.54 0.28, 14.16 0.45, 14.76 0.66 C15.36 0.88, 15.95 1.16, 16.5 1.47 C17.05 1.79, 17.58 2.16, 18.07 2.57 C18.56 2.98, 19.02 3.44, 19.43 3.93 C19.84 4.42, 20.21 4.95, 20.53 5.5 C20.84 6.05, 21.12 6.64, 21.34 7.24 C21.55 7.84, 21.72 8.46, 21.83 9.09 C21.94 9.72, 21.97 10.68, 22 11 C22.03 11.32, 22.03 10.68, 22 11" stroke="#ffffff" stroke-width="2" fill="none"></path></g><g transform="translate(130 170) rotate(0 10 7)"><text x="0" y="9.97021484375" font-family="Helvetica, Segoe UI Emoji" font-size="11px" fill="#868e96" text-anchor="start" style="white-space: pre;" direction="ltr" dominant-baseline="alphabetic">+3</text></g><g transform="translate(46 198) rotate(0 145 9)"><text x="0" y="12.51025390625" font-family="Helvetica, Segoe UI Emoji" font-size="13px" fill="#495057" text-anchor="start" style="white-space: pre;" direction="ltr" dominant-baseline="alphabetic">"A song that changed your life"</text></g><g stroke-linecap="round" transform="translate(46 228) rotate(0 50 16)"><path d="M6 0 C24.4 0, 42.81 0, 94 0 M6 0 C36.58 0, 67.15 0, 94 0 M94 0 C98 0, 100 2, 100 6 M94 0 C98 0, 100 2, 100 6 M100 6 C100 12.59, 100 19.19, 100 26 M100 6 C100 12.59, 100 19.19, 100 26 M100 26 C100 30, 98 32, 94 32 M100 26 C100 30, 98 32, 94 32 M94 32 C75.07 32, 56.14 32, 6 32 M94 32 C66.26 32, 38.51 32, 6 32 M6 32 C2 32, 0 30, 0 26 M6 32 C2 32, 0 30, 0 26 M0 26 C0 21.54, 0 17.08, 0 6 M0 26 C0 19.48, 0 12.97, 0 6 M0 6 C0 2, 2 0, 6 0 M0 6 C0 2, 2 0, 6 0" stroke="#dee2e6" stroke-width="1" fill="none"></path></g><g transform="translate(56 234) rotate(0 40 9)"><text x="0" y="12.240234375" font-family="Helvetica, Segoe UI Emoji" font-size="12px" fill="#495057" text-anchor="start" style="white-space: pre;" direction="ltr" dominant-baseline="alphabetic">View Session</text></g><g transform="translate(190 230) rotate(0 45 7)"><text x="90" y="9.7001953125" font-family="Helvetica, Segoe UI Emoji" font-size="10px" fill="#868e96" text-anchor="end" style="white-space: pre;" direction="ltr" dominant-baseline="alphabetic">Submitting · 1d 4h</text></g><g stroke-linecap="round" transform="translate(284 228) rotate(0 32.5 16)"><path d="M6 0 C18.11 0, 30.22 0, 59 0 C63 0, 65 2, 65 6 C65 10.97, 65 15.94, 65 26 C65 30, 63 32, 59 32 C42.42 32, 25.83 32, 6 32 C2 32, 0 30, 0 26 C0 19.84, 0 13.68, 0 6 C0 2, 2 0, 6 0" stroke="none" stroke-width="0" fill="#2b8a3e"></path><path d="M6 0 C17.08 0, 28.17 0, 59 0 M6 0 C25.26 0, 44.52 0, 59 0 M59 0 C63 0, 65 2, 65 6 M59 0 C63 0, 65 2, 65 6 M65 6 C65 13.64, 65 21.29, 65 26 M65 6 C65 11.97, 65 17.93, 65 26 M65 26 C65 30, 63 32, 59 32 M65 26 C65 30, 63 32, 59 32 M59 32 C45.11 32, 31.21 32, 6 32 M59 32 C39.78 32, 20.55 32, 6 32 M6 32 C2 32, 0 30, 0 26 M6 32 C2 32, 0 30, 0 26 M0 26 C0 20.33, 0 14.67, 0 6 M0 26 C0 18.9, 0 11.8, 0 6 M0 6 C0 2, 2 0, 6 0 M0 6 C0 2, 2 0, 6 0" stroke="transparent" stroke-width="2" fill="none"></path></g><g transform="translate(292 234) rotate(0 25 9)"><text x="25" y="12.240234375" font-family="Helvetica, Segoe UI Emoji" font-size="12px" fill="#ffffff" text-anchor="middle" style="white-space: pre;" direction="ltr" dominant-baseline="alphabetic">Submit</text></g><g stroke-linecap="round" transform="translate(30 294) rotate(0 167.5 76)"><path d="M12 0 C128.14 0, 244.28 0, 323 0 C331 0, 335 4, 335 12 C335 62.29, 335 112.59, 335 140 C335 148, 331 152, 323 152 C260.38 152, 197.76 152, 12 152 C4 152, 0 148, 0 140 C0 93.29, 0 46.58, 0 12 C0 4, 4 0, 12 0" stroke="none" stroke-width="0" fill="#ffffff"></path><path d="M12 0 C78.4 0, 144.79 0, 323 0 M12 0 C90.82 0, 169.64 0, 323 0 M323 0 C331 0, 335 4, 335 12 M323 0 C331 0, 335 4, 335 12 M335 12 C335 53.53, 335 95.05, 335 140 M335 12 C335 57.52, 335 103.04, 335 140 M335 140 C335 148, 331 152, 323 152 M335 140 C335 148, 331 152, 323 152 M323 152 C250.51 152, 178.01 152, 12 152 M323 152 C236.91 152, 150.82 152, 12 152 M12 152 C4 152, 0 148, 0 140 M12 152 C4 152, 0 148, 0 140 M0 140 C0 99.71, 0 59.42, 0 12 M0 140 C0 98.22, 0 56.44, 0 12 M0 12 C0 4, 4 0, 12 0 M0 12 C0 4, 4 0, 12 0" stroke="#dee2e6" stroke-width="1" fill="none"></path></g><g transform="translate(46 306) rotate(0 100 10)"><text x="0" y="14.3203125" font-family="Helvetica, Segoe UI Emoji" font-size="16px" fill="#1e1e1e" text-anchor="start" style="white-space: pre;" direction="ltr" dominant-baseline="alphabetic">Work Crew Picks</text></g><g stroke-linecap="round"><g transform="translate(335 309) rotate(0 7 0)"><path d="M0 0 C2.99 0, 5.98 0, 14 0 M0 0 C5.56 0, 11.13 0, 14 0" stroke="#adb5bd" stroke-width="2" fill="none"></path></g></g><mask></mask><g stroke-linecap="round"><g transform="translate(335 314) rotate(0 7 0)"><path d="M0 0 C2.99 0, 5.98 0, 14 0 M0 0 C3.77 0, 7.54 0, 14 0" stroke="#adb5bd" stroke-width="2" fill="none"></path></g></g><mask></mask><g stroke-linecap="round"><g transform="translate(335 319) rotate(0 7 0)"><path d="M0 0 C2.99 0, 5.98 0, 14 0 M0 0 C4.78 0, 9.56 0, 14 0" stroke="#adb5bd" stroke-width="2" fill="none"></path></g></g><mask></mask><g stroke-linecap="round" transform="translate(46 334) rotate(0 11 11)"><path d="M22 11 C22 11.64, 21.94 12.28, 21.83 12.91 C21.72 13.54, 21.55 14.16, 21.34 14.76 C21.12 15.36, 20.84 15.95, 20.53 16.5 C20.21 17.05, 19.84 17.58, 19.43 18.07 C19.02 18.56, 18.56 19.02, 18.07 19.43 C17.58 19.84, 17.05 20.21, 16.5 20.53 C15.95 20.84, 15.36 21.12, 14.76 21.34 C14.16 21.55, 13.54 21.72, 12.91 21.83 C12.28 21.94, 11.64 22, 11 22 C10.36 22, 9.72 21.94, 9.09 21.83 C8.46 21.72, 7.84 21.55, 7.24 21.34 C6.64 21.12, 6.05 20.84, 5.5 20.53 C4.95 20.21, 4.42 19.84, 3.93 19.43 C3.44 19.02, 2.98 18.56, 2.57 18.07 C2.16 17.58, 1.79 17.05, 1.47 16.5 C1.16 15.95, 0.88 15.36, 0.66 14.76 C0.45 14.16, 0.28 13.54, 0.17 12.91 C0.06 12.28, 0 11.64, 0 11 C0 10.36, 0.06 9.72, 0.17 9.09 C0.28 8.46, 0.45 7.84, 0.66 7.24 C0.88 6.64, 1.16 6.05, 1.47 5.5 C1.79 4.95, 2.16 4.42, 2.57 3.93 C2.98 3.44, 3.44 2.98, 3.93 2.57 C4.42 2.16, 4.95 1.79, 5.5 1.47 C6.05 1.16, 6.64 0.88, 7.24 0.66 C7.84 0.45, 8.46 0.28, 9.09 0.17 C9.72 0.06, 10.36 0, 11 0 C11.64 0, 12.28 0.06, 12.91 0.17 C13.54 0.28, 14.16 0.45, 14.76 0.66 C15.36 0.88, 15.95 1.16, 16.5 1.47 C17.05 1.79, 17.58 2.16, 18.07 2.57 C18.56 2.98, 19.02 3.44, 19.43 3.93 C19.84 4.42, 20.21 4.95, 20.53 5.5 C20.84 6.05, 21.12 6.64, 21.34 7.24 C21.55 7.84, 21.72 8.46, 21.83 9.09 C21.94 9.72, 21.97 10.68, 22 11 C22.03 11.32, 22.03 10.68, 22 11" stroke="none" stroke-width="0" fill="#b2f2bb"></path><path d="M22 11 C22 11.64, 21.94 12.28, 21.83 12.91 C21.72 13.54, 21.55 14.16, 21.34 14.76 C21.12 15.36, 20.84 15.95, 20.53 16.5 C20.21 17.05, 19.84 17.58, 19.43 18.07 C19.02 18.56, 18.56 19.02, 18.07 19.43 C17.58 19.84, 17.05 20.21, 16.5 20.53 C15.95 20.84, 15.36 21.12, 14.76 21.34 C14.16 21.55, 13.54 21.72, 12.91 21.83 C12.28 21.94, 11.64 22, 11 22 C10.36 22, 9.72 21.94, 9.09 21.83 C8.46 21.72, 7.84 21.55, 7.24 21.34 C6.64 21.12, 6.05 20.84, 5.5 20.53 C4.95 20.21, 4.42 19.84, 3.93 19.43 C3.44 19.02, 2.98 18.56, 2.57 18.07 C2.16 17.58, 1.79 17.05, 1.47 16.5 C1.16 15.95, 0.88 15.36, 0.66 14.76 C0.45 14.16, 0.28 13.54, 0.17 12.91 C0.06 12.28, 0 11.64, 0 11 C0 10.36, 0.06 9.72, 0.17 9.09 C0.28 8.46, 0.45 7.84, 0.66 7.24 C0.88 6.64, 1.16 6.05, 1.47 5.5 C1.79 4.95, 2.16 4.42, 2.57 3.93 C2.98 3.44, 3.44 2.98, 3.93 2.57 C4.42 2.16, 4.95 1.79, 5.5 1.47 C6.05 1.16, 6.64 0.88, 7.24 0.66 C7.84 0.45, 8.46 0.28, 9.09 0.17 C9.72 0.06, 10.36 0, 11 0 C11.64 0, 12.28 0.06, 12.91 0.17 C13.54 0.28, 14.16 0.45, 14.76 0.66 C15.36 0.88, 15.95 1.16, 16.5 1.47 C17.05 1.79, 17.58 2.16, 18.07 2.57 C18.56 2.98, 19.02 3.44, 19.43 3.93 C19.84 4.42, 20.21 4.95, 20.53 5.5 C20.84 6.05, 21.12 6.64, 21.34 7.24 C21.55 7.84, 21.72 8.46, 21.83 9.09 C21.94 9.72, 21.97 10.68, 22 11 C22.03 11.32, 22.03 10.68, 22 11" stroke="#ffffff" stroke-width="2" fill="none"></path></g><g stroke-linecap="round" transform="translate(60 334) rotate(0 11 11)"><path d="M22 11 C22 11.64, 21.94 12.28, 21.83 12.91 C21.72 13.54, 21.55 14.16, 21.34 14.76 C21.12 15.36, 20.84 15.95, 20.53 16.5 C20.21 17.05, 19.84 17.58, 19.43 18.07 C19.02 18.56, 18.56 19.02, 18.07 19.43 C17.58 19.84, 17.05 20.21, 16.5 20.53 C15.95 20.84, 15.36 21.12, 14.76 21.34 C14.16 21.55, 13.54 21.72, 12.91 21.83 C12.28 21.94, 11.64 22, 11 22 C10.36 22, 9.72 21.94, 9.09 21.83 C8.46 21.72, 7.84 21.55, 7.24 21.34 C6.64 21.12, 6.05 20.84, 5.5 20.53 C4.95 20.21, 4.42 19.84, 3.93 19.43 C3.44 19.02, 2.98 18.56, 2.57 18.07 C2.16 17.58, 1.79 17.05, 1.47 16.5 C1.16 15.95, 0.88 15.36, 0.66 14.76 C0.45 14.16, 0.28 13.54, 0.17 12.91 C0.06 12.28, 0 11.64, 0 11 C0 10.36, 0.06 9.72, 0.17 9.09 C0.28 8.46, 0.45 7.84, 0.66 7.24 C0.88 6.64, 1.16 6.05, 1.47 5.5 C1.79 4.95, 2.16 4.42, 2.57 3.93 C2.98 3.44, 3.44 2.98, 3.93 2.57 C4.42 2.16, 4.95 1.79, 5.5 1.47 C6.05 1.16, 6.64 0.88, 7.24 0.66 C7.84 0.45, 8.46 0.28, 9.09 0.17 C9.72 0.06, 10.36 0, 11 0 C11.64 0, 12.28 0.06, 12.91 0.17 C13.54 0.28, 14.16 0.45, 14.76 0.66 C15.36 0.88, 15.95 1.16, 16.5 1.47 C17.05 1.79, 17.58 2.16, 18.07 2.57 C18.56 2.98, 19.02 3.44, 19.43 3.93 C19.84 4.42, 20.21 4.95, 20.53 5.5 C20.84 6.05, 21.12 6.64, 21.34 7.24 C21.55 7.84, 21.72 8.46, 21.83 9.09 C21.94 9.72, 21.97 10.68, 22 11 C22.03 11.32, 22.03 10.68, 22 11" stroke="none" stroke-width="0" fill="#ffd8a8"></path><path d="M22 11 C22 11.64, 21.94 12.28, 21.83 12.91 C21.72 13.54, 21.55 14.16, 21.34 14.76 C21.12 15.36, 20.84 15.95, 20.53 16.5 C20.21 17.05, 19.84 17.58, 19.43 18.07 C19.02 18.56, 18.56 19.02, 18.07 19.43 C17.58 19.84, 17.05 20.21, 16.5 20.53 C15.95 20.84, 15.36 21.12, 14.76 21.34 C14.16 21.55, 13.54 21.72, 12.91 21.83 C12.28 21.94, 11.64 22, 11 22 C10.36 22, 9.72 21.94, 9.09 21.83 C8.46 21.72, 7.84 21.55, 7.24 21.34 C6.64 21.12, 6.05 20.84, 5.5 20.53 C4.95 20.21, 4.42 19.84, 3.93 19.43 C3.44 19.02, 2.98 18.56, 2.57 18.07 C2.16 17.58, 1.79 17.05, 1.47 16.5 C1.16 15.95, 0.88 15.36, 0.66 14.76 C0.45 14.16, 0.28 13.54, 0.17 12.91 C0.06 12.28, 0 11.64, 0 11 C0 10.36, 0.06 9.72, 0.17 9.09 C0.28 8.46, 0.45 7.84, 0.66 7.24 C0.88 6.64, 1.16 6.05, 1.47 5.5 C1.79 4.95, 2.16 4.42, 2.57 3.93 C2.98 3.44, 3.44 2.98, 3.93 2.57 C4.42 2.16, 4.95 1.79, 5.5 1.47 C6.05 1.16, 6.64 0.88, 7.24 0.66 C7.84 0.45, 8.46 0.28, 9.09 0.17 C9.72 0.06, 10.36 0, 11 0 C11.64 0, 12.28 0.06, 12.91 0.17 C13.54 0.28, 14.16 0.45, 14.76 0.66 C15.36 0.88, 15.95 1.16, 16.5 1.47 C17.05 1.79, 17.58 2.16, 18.07 2.57 C18.56 2.98, 19.02 3.44, 19.43 3.93 C19.84 4.42, 20.21 4.95, 20.53 5.5 C20.84 6.05, 21.12 6.64, 21.34 7.24 C21.55 7.84, 21.72 8.46, 21.83 9.09 C21.94 9.72, 21.97 10.68, 22 11 C22.03 11.32, 22.03 10.68, 22 11" stroke="#ffffff" stroke-width="2" fill="none"></path></g><g stroke-linecap="round" transform="translate(74 334) rotate(0 11 11)"><path d="M22 11 C22 11.64, 21.94 12.28, 21.83 12.91 C21.72 13.54, 21.55 14.16, 21.34 14.76 C21.12 15.36, 20.84 15.95, 20.53 16.5 C20.21 17.05, 19.84 17.58, 19.43 18.07 C19.02 18.56, 18.56 19.02, 18.07 19.43 C17.58 19.84, 17.05 20.21, 16.5 20.53 C15.95 20.84, 15.36 21.12, 14.76 21.34 C14.16 21.55, 13.54 21.72, 12.91 21.83 C12.28 21.94, 11.64 22, 11 22 C10.36 22, 9.72 21.94, 9.09 21.83 C8.46 21.72, 7.84 21.55, 7.24 21.34 C6.64 21.12, 6.05 20.84, 5.5 20.53 C4.95 20.21, 4.42 19.84, 3.93 19.43 C3.44 19.02, 2.98 18.56, 2.57 18.07 C2.16 17.58, 1.79 17.05, 1.47 16.5 C1.16 15.95, 0.88 15.36, 0.66 14.76 C0.45 14.16, 0.28 13.54, 0.17 12.91 C0.06 12.28, 0 11.64, 0 11 C0 10.36, 0.06 9.72, 0.17 9.09 C0.28 8.46, 0.45 7.84, 0.66 7.24 C0.88 6.64, 1.16 6.05, 1.47 5.5 C1.79 4.95, 2.16 4.42, 2.57 3.93 C2.98 3.44, 3.44 2.98, 3.93 2.57 C4.42 2.16, 4.95 1.79, 5.5 1.47 C6.05 1.16, 6.64 0.88, 7.24 0.66 C7.84 0.45, 8.46 0.28, 9.09 0.17 C9.72 0.06, 10.36 0, 11 0 C11.64 0, 12.28 0.06, 12.91 0.17 C13.54 0.28, 14.16 0.45, 14.76 0.66 C15.36 0.88, 15.95 1.16, 16.5 1.47 C17.05 1.79, 17.58 2.16, 18.07 2.57 C18.56 2.98, 19.02 3.44, 19.43 3.93 C19.84 4.42, 20.21 4.95, 20.53 5.5 C20.84 6.05, 21.12 6.64, 21.34 7.24 C21.55 7.84, 21.72 8.46, 21.83 9.09 C21.94 9.72, 21.97 10.68, 22 11 C22.03 11.32, 22.03 10.68, 22 11" stroke="none" stroke-width="0" fill="#d0bfff"></path><path d="M22 11 C22 11.64, 21.94 12.28, 21.83 12.91 C21.72 13.54, 21.55 14.16, 21.34 14.76 C21.12 15.36, 20.84 15.95, 20.53 16.5 C20.21 17.05, 19.84 17.58, 19.43 18.07 C19.02 18.56, 18.56 19.02, 18.07 19.43 C17.58 19.84, 17.05 20.21, 16.5 20.53 C15.95 20.84, 15.36 21.12, 14.76 21.34 C14.16 21.55, 13.54 21.72, 12.91 21.83 C12.28 21.94, 11.64 22, 11 22 C10.36 22, 9.72 21.94, 9.09 21.83 C8.46 21.72, 7.84 21.55, 7.24 21.34 C6.64 21.12, 6.05 20.84, 5.5 20.53 C4.95 20.21, 4.42 19.84, 3.93 19.43 C3.44 19.02, 2.98 18.56, 2.57 18.07 C2.16 17.58, 1.79 17.05, 1.47 16.5 C1.16 15.95, 0.88 15.36, 0.66 14.76 C0.45 14.16, 0.28 13.54, 0.17 12.91 C0.06 12.28, 0 11.64, 0 11 C0 10.36, 0.06 9.72, 0.17 9.09 C0.28 8.46, 0.45 7.84, 0.66 7.24 C0.88 6.64, 1.16 6.05, 1.47 5.5 C1.79 4.95, 2.16 4.42, 2.57 3.93 C2.98 3.44, 3.44 2.98, 3.93 2.57 C4.42 2.16, 4.95 1.79, 5.5 1.47 C6.05 1.16, 6.64 0.88, 7.24 0.66 C7.84 0.45, 8.46 0.28, 9.09 0.17 C9.72 0.06, 10.36 0, 11 0 C11.64 0, 12.28 0.06, 12.91 0.17 C13.54 0.28, 14.16 0.45, 14.76 0.66 C15.36 0.88, 15.95 1.16, 16.5 1.47 C17.05 1.79, 17.58 2.16, 18.07 2.57 C18.56 2.98, 19.02 3.44, 19.43 3.93 C19.84 4.42, 20.21 4.95, 20.53 5.5 C20.84 6.05, 21.12 6.64, 21.34 7.24 C21.55 7.84, 21.72 8.46, 21.83 9.09 C21.94 9.72, 21.97 10.68, 22 11 C22.03 11.32, 22.03 10.68, 22 11" stroke="#ffffff" stroke-width="2" fill="none"></path></g><g stroke-linecap="round" transform="translate(88 334) rotate(0 11 11)"><path d="M22 11 C22 11.64, 21.94 12.28, 21.83 12.91 C21.72 13.54, 21.55 14.16, 21.34 14.76 C21.12 15.36, 20.84 15.95, 20.53 16.5 C20.21 17.05, 19.84 17.58, 19.43 18.07 C19.02 18.56, 18.56 19.02, 18.07 19.43 C17.58 19.84, 17.05 20.21, 16.5 20.53 C15.95 20.84, 15.36 21.12, 14.76 21.34 C14.16 21.55, 13.54 21.72, 12.91 21.83 C12.28 21.94, 11.64 22, 11 22 C10.36 22, 9.72 21.94, 9.09 21.83 C8.46 21.72, 7.84 21.55, 7.24 21.34 C6.64 21.12, 6.05 20.84, 5.5 20.53 C4.95 20.21, 4.42 19.84, 3.93 19.43 C3.44 19.02, 2.98 18.56, 2.57 18.07 C2.16 17.58, 1.79 17.05, 1.47 16.5 C1.16 15.95, 0.88 15.36, 0.66 14.76 C0.45 14.16, 0.28 13.54, 0.17 12.91 C0.06 12.28, 0 11.64, 0 11 C0 10.36, 0.06 9.72, 0.17 9.09 C0.28 8.46, 0.45 7.84, 0.66 7.24 C0.88 6.64, 1.16 6.05, 1.47 5.5 C1.79 4.95, 2.16 4.42, 2.57 3.93 C2.98 3.44, 3.44 2.98, 3.93 2.57 C4.42 2.16, 4.95 1.79, 5.5 1.47 C6.05 1.16, 6.64 0.88, 7.24 0.66 C7.84 0.45, 8.46 0.28, 9.09 0.17 C9.72 0.06, 10.36 0, 11 0 C11.64 0, 12.28 0.06, 12.91 0.17 C13.54 0.28, 14.16 0.45, 14.76 0.66 C15.36 0.88, 15.95 1.16, 16.5 1.47 C17.05 1.79, 17.58 2.16, 18.07 2.57 C18.56 2.98, 19.02 3.44, 19.43 3.93 C19.84 4.42, 20.21 4.95, 20.53 5.5 C20.84 6.05, 21.12 6.64, 21.34 7.24 C21.55 7.84, 21.72 8.46, 21.83 9.09 C21.94 9.72, 21.97 10.68, 22 11 C22.03 11.32, 22.03 10.68, 22 11" stroke="none" stroke-width="0" fill="#a5d8ff"></path><path d="M22 11 C22 11.64, 21.94 12.28, 21.83 12.91 C21.72 13.54, 21.55 14.16, 21.34 14.76 C21.12 15.36, 20.84 15.95, 20.53 16.5 C20.21 17.05, 19.84 17.58, 19.43 18.07 C19.02 18.56, 18.56 19.02, 18.07 19.43 C17.58 19.84, 17.05 20.21, 16.5 20.53 C15.95 20.84, 15.36 21.12, 14.76 21.34 C14.16 21.55, 13.54 21.72, 12.91 21.83 C12.28 21.94, 11.64 22, 11 22 C10.36 22, 9.72 21.94, 9.09 21.83 C8.46 21.72, 7.84 21.55, 7.24 21.34 C6.64 21.12, 6.05 20.84, 5.5 20.53 C4.95 20.21, 4.42 19.84, 3.93 19.43 C3.44 19.02, 2.98 18.56, 2.57 18.07 C2.16 17.58, 1.79 17.05, 1.47 16.5 C1.16 15.95, 0.88 15.36, 0.66 14.76 C0.45 14.16, 0.28 13.54, 0.17 12.91 C0.06 12.28, 0 11.64, 0 11 C0 10.36, 0.06 9.72, 0.17 9.09 C0.28 8.46, 0.45 7.84, 0.66 7.24 C0.88 6.64, 1.16 6.05, 1.47 5.5 C1.79 4.95, 2.16 4.42, 2.57 3.93 C2.98 3.44, 3.44 2.98, 3.93 2.57 C4.42 2.16, 4.95 1.79, 5.5 1.47 C6.05 1.16, 6.64 0.88, 7.24 0.66 C7.84 0.45, 8.46 0.28, 9.09 0.17 C9.72 0.06, 10.36 0, 11 0 C11.64 0, 12.28 0.06, 12.91 0.17 C13.54 0.28, 14.16 0.45, 14.76 0.66 C15.36 0.88, 15.95 1.16, 16.5 1.47 C17.05 1.79, 17.58 2.16, 18.07 2.57 C18.56 2.98, 19.02 3.44, 19.43 3.93 C19.84 4.42, 20.21 4.95, 20.53 5.5 C20.84 6.05, 21.12 6.64, 21.34 7.24 C21.55 7.84, 21.72 8.46, 21.83 9.09 C21.94 9.72, 21.97 10.68, 22 11 C22.03 11.32, 22.03 10.68, 22 11" stroke="#ffffff" stroke-width="2" fill="none"></path></g><g stroke-linecap="round" transform="translate(102 334) rotate(0 11 11)"><path d="M22 11 C22 11.64, 21.94 12.28, 21.83 12.91 C21.72 13.54, 21.55 14.16, 21.34 14.76 C21.12 15.36, 20.84 15.95, 20.53 16.5 C20.21 17.05, 19.84 17.58, 19.43 18.07 C19.02 18.56, 18.56 19.02, 18.07 19.43 C17.58 19.84, 17.05 20.21, 16.5 20.53 C15.95 20.84, 15.36 21.12, 14.76 21.34 C14.16 21.55, 13.54 21.72, 12.91 21.83 C12.28 21.94, 11.64 22, 11 22 C10.36 22, 9.72 21.94, 9.09 21.83 C8.46 21.72, 7.84 21.55, 7.24 21.34 C6.64 21.12, 6.05 20.84, 5.5 20.53 C4.95 20.21, 4.42 19.84, 3.93 19.43 C3.44 19.02, 2.98 18.56, 2.57 18.07 C2.16 17.58, 1.79 17.05, 1.47 16.5 C1.16 15.95, 0.88 15.36, 0.66 14.76 C0.45 14.16, 0.28 13.54, 0.17 12.91 C0.06 12.28, 0 11.64, 0 11 C0 10.36, 0.06 9.72, 0.17 9.09 C0.28 8.46, 0.45 7.84, 0.66 7.24 C0.88 6.64, 1.16 6.05, 1.47 5.5 C1.79 4.95, 2.16 4.42, 2.57 3.93 C2.98 3.44, 3.44 2.98, 3.93 2.57 C4.42 2.16, 4.95 1.79, 5.5 1.47 C6.05 1.16, 6.64 0.88, 7.24 0.66 C7.84 0.45, 8.46 0.28, 9.09 0.17 C9.72 0.06, 10.36 0, 11 0 C11.64 0, 12.28 0.06, 12.91 0.17 C13.54 0.28, 14.16 0.45, 14.76 0.66 C15.36 0.88, 15.95 1.16, 16.5 1.47 C17.05 1.79, 17.58 2.16, 18.07 2.57 C18.56 2.98, 19.02 3.44, 19.43 3.93 C19.84 4.42, 20.21 4.95, 20.53 5.5 C20.84 6.05, 21.12 6.64, 21.34 7.24 C21.55 7.84, 21.72 8.46, 21.83 9.09 C21.94 9.72, 21.97 10.68, 22 11 C22.03 11.32, 22.03 10.68, 22 11" stroke="none" stroke-width="0" fill="#ffc9c9"></path><path d="M22 11 C22 11.64, 21.94 12.28, 21.83 12.91 C21.72 13.54, 21.55 14.16, 21.34 14.76 C21.12 15.36, 20.84 15.95, 20.53 16.5 C20.21 17.05, 19.84 17.58, 19.43 18.07 C19.02 18.56, 18.56 19.02, 18.07 19.43 C17.58 19.84, 17.05 20.21, 16.5 20.53 C15.95 20.84, 15.36 21.12, 14.76 21.34 C14.16 21.55, 13.54 21.72, 12.91 21.83 C12.28 21.94, 11.64 22, 11 22 C10.36 22, 9.72 21.94, 9.09 21.83 C8.46 21.72, 7.84 21.55, 7.24 21.34 C6.64 21.12, 6.05 20.84, 5.5 20.53 C4.95 20.21, 4.42 19.84, 3.93 19.43 C3.44 19.02, 2.98 18.56, 2.57 18.07 C2.16 17.58, 1.79 17.05, 1.47 16.5 C1.16 15.95, 0.88 15.36, 0.66 14.76 C0.45 14.16, 0.28 13.54, 0.17 12.91 C0.06 12.28, 0 11.64, 0 11 C0 10.36, 0.06 9.72, 0.17 9.09 C0.28 8.46, 0.45 7.84, 0.66 7.24 C0.88 6.64, 1.16 6.05, 1.47 5.5 C1.79 4.95, 2.16 4.42, 2.57 3.93 C2.98 3.44, 3.44 2.98, 3.93 2.57 C4.42 2.16, 4.95 1.79, 5.5 1.47 C6.05 1.16, 6.64 0.88, 7.24 0.66 C7.84 0.45, 8.46 0.28, 9.09 0.17 C9.72 0.06, 10.36 0, 11 0 C11.64 0, 12.28 0.06, 12.91 0.17 C13.54 0.28, 14.16 0.45, 14.76 0.66 C15.36 0.88, 15.95 1.16, 16.5 1.47 C17.05 1.79, 17.58 2.16, 18.07 2.57 C18.56 2.98, 19.02 3.44, 19.43 3.93 C19.84 4.42, 20.21 4.95, 20.53 5.5 C20.84 6.05, 21.12 6.64, 21.34 7.24 C21.55 7.84, 21.72 8.46, 21.83 9.09 C21.94 9.72, 21.97 10.68, 22 11 C22.03 11.32, 22.03 10.68, 22 11" stroke="#ffffff" stroke-width="2" fill="none"></path></g><g transform="translate(46 366) rotate(0 145 9)"><text x="0" y="12.51025390625" font-family="Helvetica, Segoe UI Emoji" font-size="13px" fill="#495057" text-anchor="start" style="white-space: pre;" direction="ltr" dominant-baseline="alphabetic">"Best song from a movie soundtr..."</text></g><g stroke-linecap="round" transform="translate(46 396) rotate(0 50 16)"><path d="M6 0 C24.8 0, 43.6 0, 94 0 M6 0 C36.03 0, 66.06 0, 94 0 M94 0 C98 0, 100 2, 100 6 M94 0 C98 0, 100 2, 100 6 M100 6 C100 10.64, 100 15.28, 100 26 M100 6 C100 11.04, 100 16.07, 100 26 M100 26 C100 30, 98 32, 94 32 M100 26 C100 30, 98 32, 94 32 M94 32 C68.69 32, 43.38 32, 6 32 M94 32 C64.47 32, 34.93 32, 6 32 M6 32 C2 32, 0 30, 0 26 M6 32 C2 32, 0 30, 0 26 M0 26 C0 21.36, 0 16.71, 0 6 M0 26 C0 19.15, 0 12.3, 0 6 M0 6 C0 2, 2 0, 6 0 M0 6 C0 2, 2 0, 6 0" stroke="#dee2e6" stroke-width="1" fill="none"></path></g><g transform="translate(56 402) rotate(0 40 9)"><text x="0" y="12.240234375" font-family="Helvetica, Segoe UI Emoji" font-size="12px" fill="#495057" text-anchor="start" style="white-space: pre;" direction="ltr" dominant-baseline="alphabetic">View Session</text></g><g transform="translate(205 398) rotate(0 35 7)"><text x="70" y="9.7001953125" font-family="Helvetica, Segoe UI Emoji" font-size="10px" fill="#868e96" text-anchor="end" style="white-space: pre;" direction="ltr" dominant-baseline="alphabetic">Voting · 3d 2h</text></g><g stroke-linecap="round" transform="translate(299 396) rotate(0 25 16)"><path d="M6 0 C14.09 0, 22.18 0, 44 0 C48 0, 50 2, 50 6 C50 10.09, 50 14.17, 50 26 C50 30, 48 32, 44 32 C31.28 32, 18.55 32, 6 32 C2 32, 0 30, 0 26 C0 19.03, 0 12.06, 0 6 C0 2, 2 0, 6 0" stroke="none" stroke-width="0" fill="#e67700"></path><path d="M6 0 C14.12 0, 22.24 0, 44 0 M6 0 C19.58 0, 33.15 0, 44 0 M44 0 C48 0, 50 2, 50 6 M44 0 C48 0, 50 2, 50 6 M50 6 C50 11.69, 50 17.38, 50 26 M50 6 C50 10.41, 50 14.81, 50 26 M50 26 C50 30, 48 32, 44 32 M50 26 C50 30, 48 32, 44 32 M44 32 C31.28 32, 18.57 32, 6 32 M44 32 C29.44 32, 14.89 32, 6 32 M6 32 C2 32, 0 30, 0 26 M6 32 C2 32, 0 30, 0 26 M0 26 C0 20.15, 0 14.29, 0 6 M0 26 C0 18.56, 0 11.13, 0 6 M0 6 C0 2, 2 0, 6 0 M0 6 C0 2, 2 0, 6 0" stroke="transparent" stroke-width="2" fill="none"></path></g><g transform="translate(309 402) rotate(0 15 9)"><text x="15" y="12.240234375" font-family="Helvetica, Segoe UI Emoji" font-size="12px" fill="#ffffff" text-anchor="middle" style="white-space: pre;" direction="ltr" dominant-baseline="alphabetic">Vote</text></g><g stroke-linecap="round" transform="translate(30 462) rotate(0 167.5 76)"><path d="M12 0 C123.31 0, 234.63 0, 323 0 C331 0, 335 4, 335 12 C335 56.64, 335 101.29, 335 140 C335 148, 331 152, 323 152 C253.54 152, 184.09 152, 12 152 C4 152, 0 148, 0 140 C0 113.7, 0 87.4, 0 12 C0 4, 4 0, 12 0" stroke="none" stroke-width="0" fill="#ffffff"></path><path d="M12 0 C79.79 0, 147.59 0, 323 0 M12 0 C88.9 0, 165.79 0, 323 0 M323 0 C331 0, 335 4, 335 12 M323 0 C331 0, 335 4, 335 12 M335 12 C335 41.02, 335 70.04, 335 140 M335 12 C335 47.54, 335 83.08, 335 140 M335 140 C335 148, 331 152, 323 152 M335 140 C335 148, 331 152, 323 152 M323 152 C227.97 152, 132.93 152, 12 152 M323 152 C230.59 152, 138.18 152, 12 152 M12 152 C4 152, 0 148, 0 140 M12 152 C4 152, 0 148, 0 140 M0 140 C0 98.52, 0 57.04, 0 12 M0 140 C0 96.08, 0 52.17, 0 12 M0 12 C0 4, 4 0, 12 0 M0 12 C0 4, 4 0, 12 0" stroke="#dee2e6" stroke-width="1" fill="none"></path></g><g transform="translate(46 474) rotate(0 100 10)"><text x="0" y="14.3203125" font-family="Helvetica, Segoe UI Emoji" font-size="16px" fill="#1e1e1e" text-anchor="start" style="white-space: pre;" direction="ltr" dominant-baseline="alphabetic">College Throwbacks</text></g><g stroke-linecap="round"><g transform="translate(335 477) rotate(0 7 0)"><path d="M0 0 C3.05 0, 6.1 0, 14 0 M0 0 C5.48 0, 10.95 0, 14 0" stroke="#adb5bd" stroke-width="2" fill="none"></path></g></g><mask></mask><g stroke-linecap="round"><g transform="translate(335 482) rotate(0 7 0)"><path d="M0 0 C3.05 0, 6.1 0, 14 0 M0 0 C3.69 0, 7.37 0, 14 0" stroke="#adb5bd" stroke-width="2" fill="none"></path></g></g><mask></mask><g stroke-linecap="round"><g transform="translate(335 487) rotate(0 7 0)"><path d="M0 0 C3.05 0, 6.1 0, 14 0 M0 0 C4.69 0, 9.39 0, 14 0" stroke="#adb5bd" stroke-width="2" fill="none"></path></g></g><mask></mask><g stroke-linecap="round" transform="translate(46 502) rotate(0 11 11)"><path d="M22 11 C22 11.64, 21.94 12.28, 21.83 12.91 C21.72 13.54, 21.55 14.16, 21.34 14.76 C21.12 15.36, 20.84 15.95, 20.53 16.5 C20.21 17.05, 19.84 17.58, 19.43 18.07 C19.02 18.56, 18.56 19.02, 18.07 19.43 C17.58 19.84, 17.05 20.21, 16.5 20.53 C15.95 20.84, 15.36 21.12, 14.76 21.34 C14.16 21.55, 13.54 21.72, 12.91 21.83 C12.28 21.94, 11.64 22, 11 22 C10.36 22, 9.72 21.94, 9.09 21.83 C8.46 21.72, 7.84 21.55, 7.24 21.34 C6.64 21.12, 6.05 20.84, 5.5 20.53 C4.95 20.21, 4.42 19.84, 3.93 19.43 C3.44 19.02, 2.98 18.56, 2.57 18.07 C2.16 17.58, 1.79 17.05, 1.47 16.5 C1.16 15.95, 0.88 15.36, 0.66 14.76 C0.45 14.16, 0.28 13.54, 0.17 12.91 C0.06 12.28, 0 11.64, 0 11 C0 10.36, 0.06 9.72, 0.17 9.09 C0.28 8.46, 0.45 7.84, 0.66 7.24 C0.88 6.64, 1.16 6.05, 1.47 5.5 C1.79 4.95, 2.16 4.42, 2.57 3.93 C2.98 3.44, 3.44 2.98, 3.93 2.57 C4.42 2.16, 4.95 1.79, 5.5 1.47 C6.05 1.16, 6.64 0.88, 7.24 0.66 C7.84 0.45, 8.46 0.28, 9.09 0.17 C9.72 0.06, 10.36 0, 11 0 C11.64 0, 12.28 0.06, 12.91 0.17 C13.54 0.28, 14.16 0.45, 14.76 0.66 C15.36 0.88, 15.95 1.16, 16.5 1.47 C17.05 1.79, 17.58 2.16, 18.07 2.57 C18.56 2.98, 19.02 3.44, 19.43 3.93 C19.84 4.42, 20.21 4.95, 20.53 5.5 C20.84 6.05, 21.12 6.64, 21.34 7.24 C21.55 7.84, 21.72 8.46, 21.83 9.09 C21.94 9.72, 21.97 10.68, 22 11 C22.03 11.32, 22.03 10.68, 22 11" stroke="none" stroke-width="0" fill="#a5d8ff"></path><path d="M22 11 C22 11.64, 21.94 12.28, 21.83 12.91 C21.72 13.54, 21.55 14.16, 21.34 14.76 C21.12 15.36, 20.84 15.95, 20.53 16.5 C20.21 17.05, 19.84 17.58, 19.43 18.07 C19.02 18.56, 18.56 19.02, 18.07 19.43 C17.58 19.84, 17.05 20.21, 16.5 20.53 C15.95 20.84, 15.36 21.12, 14.76 21.34 C14.16 21.55, 13.54 21.72, 12.91 21.83 C12.28 21.94, 11.64 22, 11 22 C10.36 22, 9.72 21.94, 9.09 21.83 C8.46 21.72, 7.84 21.55, 7.24 21.34 C6.64 21.12, 6.05 20.84, 5.5 20.53 C4.95 20.21, 4.42 19.84, 3.93 19.43 C3.44 19.02, 2.98 18.56, 2.57 18.07 C2.16 17.58, 1.79 17.05, 1.47 16.5 C1.16 15.95, 0.88 15.36, 0.66 14.76 C0.45 14.16, 0.28 13.54, 0.17 12.91 C0.06 12.28, 0 11.64, 0 11 C0 10.36, 0.06 9.72, 0.17 9.09 C0.28 8.46, 0.45 7.84, 0.66 7.24 C0.88 6.64, 1.16 6.05, 1.47 5.5 C1.79 4.95, 2.16 4.42, 2.57 3.93 C2.98 3.44, 3.44 2.98, 3.93 2.57 C4.42 2.16, 4.95 1.79, 5.5 1.47 C6.05 1.16, 6.64 0.88, 7.24 0.66 C7.84 0.45, 8.46 0.28, 9.09 0.17 C9.72 0.06, 10.36 0, 11 0 C11.64 0, 12.28 0.06, 12.91 0.17 C13.54 0.28, 14.16 0.45, 14.76 0.66 C15.36 0.88, 15.95 1.16, 16.5 1.47 C17.05 1.79, 17.58 2.16, 18.07 2.57 C18.56 2.98, 19.02 3.44, 19.43 3.93 C19.84 4.42, 20.21 4.95, 20.53 5.5 C20.84 6.05, 21.12 6.64, 21.34 7.24 C21.55 7.84, 21.72 8.46, 21.83 9.09 C21.94 9.72, 21.97 10.68, 22 11 C22.03 11.32, 22.03 10.68, 22 11" stroke="#ffffff" stroke-width="2" fill="none"></path></g><g stroke-linecap="round" transform="translate(60 502) rotate(0 11 11)"><path d="M22 11 C22 11.64, 21.94 12.28, 21.83 12.91 C21.72 13.54, 21.55 14.16, 21.34 14.76 C21.12 15.36, 20.84 15.95, 20.53 16.5 C20.21 17.05, 19.84 17.58, 19.43 18.07 C19.02 18.56, 18.56 19.02, 18.07 19.43 C17.58 19.84, 17.05 20.21, 16.5 20.53 C15.95 20.84, 15.36 21.12, 14.76 21.34 C14.16 21.55, 13.54 21.72, 12.91 21.83 C12.28 21.94, 11.64 22, 11 22 C10.36 22, 9.72 21.94, 9.09 21.83 C8.46 21.72, 7.84 21.55, 7.24 21.34 C6.64 21.12, 6.05 20.84, 5.5 20.53 C4.95 20.21, 4.42 19.84, 3.93 19.43 C3.44 19.02, 2.98 18.56, 2.57 18.07 C2.16 17.58, 1.79 17.05, 1.47 16.5 C1.16 15.95, 0.88 15.36, 0.66 14.76 C0.45 14.16, 0.28 13.54, 0.17 12.91 C0.06 12.28, 0 11.64, 0 11 C0 10.36, 0.06 9.72, 0.17 9.09 C0.28 8.46, 0.45 7.84, 0.66 7.24 C0.88 6.64, 1.16 6.05, 1.47 5.5 C1.79 4.95, 2.16 4.42, 2.57 3.93 C2.98 3.44, 3.44 2.98, 3.93 2.57 C4.42 2.16, 4.95 1.79, 5.5 1.47 C6.05 1.16, 6.64 0.88, 7.24 0.66 C7.84 0.45, 8.46 0.28, 9.09 0.17 C9.72 0.06, 10.36 0, 11 0 C11.64 0, 12.28 0.06, 12.91 0.17 C13.54 0.28, 14.16 0.45, 14.76 0.66 C15.36 0.88, 15.95 1.16, 16.5 1.47 C17.05 1.79, 17.58 2.16, 18.07 2.57 C18.56 2.98, 19.02 3.44, 19.43 3.93 C19.84 4.42, 20.21 4.95, 20.53 5.5 C20.84 6.05, 21.12 6.64, 21.34 7.24 C21.55 7.84, 21.72 8.46, 21.83 9.09 C21.94 9.72, 21.97 10.68, 22 11 C22.03 11.32, 22.03 10.68, 22 11" stroke="none" stroke-width="0" fill="#ffc9c9"></path><path d="M22 11 C22 11.64, 21.94 12.28, 21.83 12.91 C21.72 13.54, 21.55 14.16, 21.34 14.76 C21.12 15.36, 20.84 15.95, 20.53 16.5 C20.21 17.05, 19.84 17.58, 19.43 18.07 C19.02 18.56, 18.56 19.02, 18.07 19.43 C17.58 19.84, 17.05 20.21, 16.5 20.53 C15.95 20.84, 15.36 21.12, 14.76 21.34 C14.16 21.55, 13.54 21.72, 12.91 21.83 C12.28 21.94, 11.64 22, 11 22 C10.36 22, 9.72 21.94, 9.09 21.83 C8.46 21.72, 7.84 21.55, 7.24 21.34 C6.64 21.12, 6.05 20.84, 5.5 20.53 C4.95 20.21, 4.42 19.84, 3.93 19.43 C3.44 19.02, 2.98 18.56, 2.57 18.07 C2.16 17.58, 1.79 17.05, 1.47 16.5 C1.16 15.95, 0.88 15.36, 0.66 14.76 C0.45 14.16, 0.28 13.54, 0.17 12.91 C0.06 12.28, 0 11.64, 0 11 C0 10.36, 0.06 9.72, 0.17 9.09 C0.28 8.46, 0.45 7.84, 0.66 7.24 C0.88 6.64, 1.16 6.05, 1.47 5.5 C1.79 4.95, 2.16 4.42, 2.57 3.93 C2.98 3.44, 3.44 2.98, 3.93 2.57 C4.42 2.16, 4.95 1.79, 5.5 1.47 C6.05 1.16, 6.64 0.88, 7.24 0.66 C7.84 0.45, 8.46 0.28, 9.09 0.17 C9.72 0.06, 10.36 0, 11 0 C11.64 0, 12.28 0.06, 12.91 0.17 C13.54 0.28, 14.16 0.45, 14.76 0.66 C15.36 0.88, 15.95 1.16, 16.5 1.47 C17.05 1.79, 17.58 2.16, 18.07 2.57 C18.56 2.98, 19.02 3.44, 19.43 3.93 C19.84 4.42, 20.21 4.95, 20.53 5.5 C20.84 6.05, 21.12 6.64, 21.34 7.24 C21.55 7.84, 21.72 8.46, 21.83 9.09 C21.94 9.72, 21.97 10.68, 22 11 C22.03 11.32, 22.03 10.68, 22 11" stroke="#ffffff" stroke-width="2" fill="none"></path></g><g stroke-linecap="round" transform="translate(74 502) rotate(0 11 11)"><path d="M22 11 C22 11.64, 21.94 12.28, 21.83 12.91 C21.72 13.54, 21.55 14.16, 21.34 14.76 C21.12 15.36, 20.84 15.95, 20.53 16.5 C20.21 17.05, 19.84 17.58, 19.43 18.07 C19.02 18.56, 18.56 19.02, 18.07 19.43 C17.58 19.84, 17.05 20.21, 16.5 20.53 C15.95 20.84, 15.36 21.12, 14.76 21.34 C14.16 21.55, 13.54 21.72, 12.91 21.83 C12.28 21.94, 11.64 22, 11 22 C10.36 22, 9.72 21.94, 9.09 21.83 C8.46 21.72, 7.84 21.55, 7.24 21.34 C6.64 21.12, 6.05 20.84, 5.5 20.53 C4.95 20.21, 4.42 19.84, 3.93 19.43 C3.44 19.02, 2.98 18.56, 2.57 18.07 C2.16 17.58, 1.79 17.05, 1.47 16.5 C1.16 15.95, 0.88 15.36, 0.66 14.76 C0.45 14.16, 0.28 13.54, 0.17 12.91 C0.06 12.28, 0 11.64, 0 11 C0 10.36, 0.06 9.72, 0.17 9.09 C0.28 8.46, 0.45 7.84, 0.66 7.24 C0.88 6.64, 1.16 6.05, 1.47 5.5 C1.79 4.95, 2.16 4.42, 2.57 3.93 C2.98 3.44, 3.44 2.98, 3.93 2.57 C4.42 2.16, 4.95 1.79, 5.5 1.47 C6.05 1.16, 6.64 0.88, 7.24 0.66 C7.84 0.45, 8.46 0.28, 9.09 0.17 C9.72 0.06, 10.36 0, 11 0 C11.64 0, 12.28 0.06, 12.91 0.17 C13.54 0.28, 14.16 0.45, 14.76 0.66 C15.36 0.88, 15.95 1.16, 16.5 1.47 C17.05 1.79, 17.58 2.16, 18.07 2.57 C18.56 2.98, 19.02 3.44, 19.43 3.93 C19.84 4.42, 20.21 4.95, 20.53 5.5 C20.84 6.05, 21.12 6.64, 21.34 7.24 C21.55 7.84, 21.72 8.46, 21.83 9.09 C21.94 9.72, 21.97 10.68, 22 11 C22.03 11.32, 22.03 10.68, 22 11" stroke="none" stroke-width="0" fill="#e9ecef"></path><path d="M22 11 C22 11.64, 21.94 12.28, 21.83 12.91 C21.72 13.54, 21.55 14.16, 21.34 14.76 C21.12 15.36, 20.84 15.95, 20.53 16.5 C20.21 17.05, 19.84 17.58, 19.43 18.07 C19.02 18.56, 18.56 19.02, 18.07 19.43 C17.58 19.84, 17.05 20.21, 16.5 20.53 C15.95 20.84, 15.36 21.12, 14.76 21.34 C14.16 21.55, 13.54 21.72, 12.91 21.83 C12.28 21.94, 11.64 22, 11 22 C10.36 22, 9.72 21.94, 9.09 21.83 C8.46 21.72, 7.84 21.55, 7.24 21.34 C6.64 21.12, 6.05 20.84, 5.5 20.53 C4.95 20.21, 4.42 19.84, 3.93 19.43 C3.44 19.02, 2.98 18.56, 2.57 18.07 C2.16 17.58, 1.79 17.05, 1.47 16.5 C1.16 15.95, 0.88 15.36, 0.66 14.76 C0.45 14.16, 0.28 13.54, 0.17 12.91 C0.06 12.28, 0 11.64, 0 11 C0 10.36, 0.06 9.72, 0.17 9.09 C0.28 8.46, 0.45 7.84, 0.66 7.24 C0.88 6.64, 1.16 6.05, 1.47 5.5 C1.79 4.95, 2.16 4.42, 2.57 3.93 C2.98 3.44, 3.44 2.98, 3.93 2.57 C4.42 2.16, 4.95 1.79, 5.5 1.47 C6.05 1.16, 6.64 0.88, 7.24 0.66 C7.84 0.45, 8.46 0.28, 9.09 0.17 C9.72 0.06, 10.36 0, 11 0 C11.64 0, 12.28 0.06, 12.91 0.17 C13.54 0.28, 14.16 0.45, 14.76 0.66 C15.36 0.88, 15.95 1.16, 16.5 1.47 C17.05 1.79, 17.58 2.16, 18.07 2.57 C18.56 2.98, 19.02 3.44, 19.43 3.93 C19.84 4.42, 20.21 4.95, 20.53 5.5 C20.84 6.05, 21.12 6.64, 21.34 7.24 C21.55 7.84, 21.72 8.46, 21.83 9.09 C21.94 9.72, 21.97 10.68, 22 11 C22.03 11.32, 22.03 10.68, 22 11" stroke="#ffffff" stroke-width="2" fill="none"></path></g><g stroke-linecap="round" transform="translate(88 502) rotate(0 11 11)"><path d="M22 11 C22 11.64, 21.94 12.28, 21.83 12.91 C21.72 13.54, 21.55 14.16, 21.34 14.76 C21.12 15.36, 20.84 15.95, 20.53 16.5 C20.21 17.05, 19.84 17.58, 19.43 18.07 C19.02 18.56, 18.56 19.02, 18.07 19.43 C17.58 19.84, 17.05 20.21, 16.5 20.53 C15.95 20.84, 15.36 21.12, 14.76 21.34 C14.16 21.55, 13.54 21.72, 12.91 21.83 C12.28 21.94, 11.64 22, 11 22 C10.36 22, 9.72 21.94, 9.09 21.83 C8.46 21.72, 7.84 21.55, 7.24 21.34 C6.64 21.12, 6.05 20.84, 5.5 20.53 C4.95 20.21, 4.42 19.84, 3.93 19.43 C3.44 19.02, 2.98 18.56, 2.57 18.07 C2.16 17.58, 1.79 17.05, 1.47 16.5 C1.16 15.95, 0.88 15.36, 0.66 14.76 C0.45 14.16, 0.28 13.54, 0.17 12.91 C0.06 12.28, 0 11.64, 0 11 C0 10.36, 0.06 9.72, 0.17 9.09 C0.28 8.46, 0.45 7.84, 0.66 7.24 C0.88 6.64, 1.16 6.05, 1.47 5.5 C1.79 4.95, 2.16 4.42, 2.57 3.93 C2.98 3.44, 3.44 2.98, 3.93 2.57 C4.42 2.16, 4.95 1.79, 5.5 1.47 C6.05 1.16, 6.64 0.88, 7.24 0.66 C7.84 0.45, 8.46 0.28, 9.09 0.17 C9.72 0.06, 10.36 0, 11 0 C11.64 0, 12.28 0.06, 12.91 0.17 C13.54 0.28, 14.16 0.45, 14.76 0.66 C15.36 0.88, 15.95 1.16, 16.5 1.47 C17.05 1.79, 17.58 2.16, 18.07 2.57 C18.56 2.98, 19.02 3.44, 19.43 3.93 C19.84 4.42, 20.21 4.95, 20.53 5.5 C20.84 6.05, 21.12 6.64, 21.34 7.24 C21.55 7.84, 21.72 8.46, 21.83 9.09 C21.94 9.72, 21.97 10.68, 22 11 C22.03 11.32, 22.03 10.68, 22 11" stroke="none" stroke-width="0" fill="#ffec99"></path><path d="M22 11 C22 11.64, 21.94 12.28, 21.83 12.91 C21.72 13.54, 21.55 14.16, 21.34 14.76 C21.12 15.36, 20.84 15.95, 20.53 16.5 C20.21 17.05, 19.84 17.58, 19.43 18.07 C19.02 18.56, 18.56 19.02, 18.07 19.43 C17.58 19.84, 17.05 20.21, 16.5 20.53 C15.95 20.84, 15.36 21.12, 14.76 21.34 C14.16 21.55, 13.54 21.72, 12.91 21.83 C12.28 21.94, 11.64 22, 11 22 C10.36 22, 9.72 21.94, 9.09 21.83 C8.46 21.72, 7.84 21.55, 7.24 21.34 C6.64 21.12, 6.05 20.84, 5.5 20.53 C4.95 20.21, 4.42 19.84, 3.93 19.43 C3.44 19.02, 2.98 18.56, 2.57 18.07 C2.16 17.58, 1.79 17.05, 1.47 16.5 C1.16 15.95, 0.88 15.36, 0.66 14.76 C0.45 14.16, 0.28 13.54, 0.17 12.91 C0.06 12.28, 0 11.64, 0 11 C0 10.36, 0.06 9.72, 0.17 9.09 C0.28 8.46, 0.45 7.84, 0.66 7.24 C0.88 6.64, 1.16 6.05, 1.47 5.5 C1.79 4.95, 2.16 4.42, 2.57 3.93 C2.98 3.44, 3.44 2.98, 3.93 2.57 C4.42 2.16, 4.95 1.79, 5.5 1.47 C6.05 1.16, 6.64 0.88, 7.24 0.66 C7.84 0.45, 8.46 0.28, 9.09 0.17 C9.72 0.06, 10.36 0, 11 0 C11.64 0, 12.28 0.06, 12.91 0.17 C13.54 0.28, 14.16 0.45, 14.76 0.66 C15.36 0.88, 15.95 1.16, 16.5 1.47 C17.05 1.79, 17.58 2.16, 18.07 2.57 C18.56 2.98, 19.02 3.44, 19.43 3.93 C19.84 4.42, 20.21 4.95, 20.53 5.5 C20.84 6.05, 21.12 6.64, 21.34 7.24 C21.55 7.84, 21.72 8.46, 21.83 9.09 C21.94 9.72, 21.97 10.68, 22 11 C22.03 11.32, 22.03 10.68, 22 11" stroke="#ffffff" stroke-width="2" fill="none"></path></g><g stroke-linecap="round" transform="translate(102 502) rotate(0 11 11)"><path d="M22 11 C22 11.64, 21.94 12.28, 21.83 12.91 C21.72 13.54, 21.55 14.16, 21.34 14.76 C21.12 15.36, 20.84 15.95, 20.53 16.5 C20.21 17.05, 19.84 17.58, 19.43 18.07 C19.02 18.56, 18.56 19.02, 18.07 19.43 C17.58 19.84, 17.05 20.21, 16.5 20.53 C15.95 20.84, 15.36 21.12, 14.76 21.34 C14.16 21.55, 13.54 21.72, 12.91 21.83 C12.28 21.94, 11.64 22, 11 22 C10.36 22, 9.72 21.94, 9.09 21.83 C8.46 21.72, 7.84 21.55, 7.24 21.34 C6.64 21.12, 6.05 20.84, 5.5 20.53 C4.95 20.21, 4.42 19.84, 3.93 19.43 C3.44 19.02, 2.98 18.56, 2.57 18.07 C2.16 17.58, 1.79 17.05, 1.47 16.5 C1.16 15.95, 0.88 15.36, 0.66 14.76 C0.45 14.16, 0.28 13.54, 0.17 12.91 C0.06 12.28, 0 11.64, 0 11 C0 10.36, 0.06 9.72, 0.17 9.09 C0.28 8.46, 0.45 7.84, 0.66 7.24 C0.88 6.64, 1.16 6.05, 1.47 5.5 C1.79 4.95, 2.16 4.42, 2.57 3.93 C2.98 3.44, 3.44 2.98, 3.93 2.57 C4.42 2.16, 4.95 1.79, 5.5 1.47 C6.05 1.16, 6.64 0.88, 7.24 0.66 C7.84 0.45, 8.46 0.28, 9.09 0.17 C9.72 0.06, 10.36 0, 11 0 C11.64 0, 12.28 0.06, 12.91 0.17 C13.54 0.28, 14.16 0.45, 14.76 0.66 C15.36 0.88, 15.95 1.16, 16.5 1.47 C17.05 1.79, 17.58 2.16, 18.07 2.57 C18.56 2.98, 19.02 3.44, 19.43 3.93 C19.84 4.42, 20.21 4.95, 20.53 5.5 C20.84 6.05, 21.12 6.64, 21.34 7.24 C21.55 7.84, 21.72 8.46, 21.83 9.09 C21.94 9.72, 21.97 10.68, 22 11 C22.03 11.32, 22.03 10.68, 22 11" stroke="none" stroke-width="0" fill="#b2f2bb"></path><path d="M22 11 C22 11.64, 21.94 12.28, 21.83 12.91 C21.72 13.54, 21.55 14.16, 21.34 14.76 C21.12 15.36, 20.84 15.95, 20.53 16.5 C20.21 17.05, 19.84 17.58, 19.43 18.07 C19.02 18.56, 18.56 19.02, 18.07 19.43 C17.58 19.84, 17.05 20.21, 16.5 20.53 C15.95 20.84, 15.36 21.12, 14.76 21.34 C14.16 21.55, 13.54 21.72, 12.91 21.83 C12.28 21.94, 11.64 22, 11 22 C10.36 22, 9.72 21.94, 9.09 21.83 C8.46 21.72, 7.84 21.55, 7.24 21.34 C6.64 21.12, 6.05 20.84, 5.5 20.53 C4.95 20.21, 4.42 19.84, 3.93 19.43 C3.44 19.02, 2.98 18.56, 2.57 18.07 C2.16 17.58, 1.79 17.05, 1.47 16.5 C1.16 15.95, 0.88 15.36, 0.66 14.76 C0.45 14.16, 0.28 13.54, 0.17 12.91 C0.06 12.28, 0 11.64, 0 11 C0 10.36, 0.06 9.72, 0.17 9.09 C0.28 8.46, 0.45 7.84, 0.66 7.24 C0.88 6.64, 1.16 6.05, 1.47 5.5 C1.79 4.95, 2.16 4.42, 2.57 3.93 C2.98 3.44, 3.44 2.98, 3.93 2.57 C4.42 2.16, 4.95 1.79, 5.5 1.47 C6.05 1.16, 6.64 0.88, 7.24 0.66 C7.84 0.45, 8.46 0.28, 9.09 0.17 C9.72 0.06, 10.36 0, 11 0 C11.64 0, 12.28 0.06, 12.91 0.17 C13.54 0.28, 14.16 0.45, 14.76 0.66 C15.36 0.88, 15.95 1.16, 16.5 1.47 C17.05 1.79, 17.58 2.16, 18.07 2.57 C18.56 2.98, 19.02 3.44, 19.43 3.93 C19.84 4.42, 20.21 4.95, 20.53 5.5 C20.84 6.05, 21.12 6.64, 21.34 7.24 C21.55 7.84, 21.72 8.46, 21.83 9.09 C21.94 9.72, 21.97 10.68, 22 11 C22.03 11.32, 22.03 10.68, 22 11" stroke="#ffffff" stroke-width="2" fill="none"></path></g><g stroke-linecap="round" transform="translate(116 502) rotate(0 11 11)"><path d="M22 11 C22 11.64, 21.94 12.28, 21.83 12.91 C21.72 13.54, 21.55 14.16, 21.34 14.76 C21.12 15.36, 20.84 15.95, 20.53 16.5 C20.21 17.05, 19.84 17.58, 19.43 18.07 C19.02 18.56, 18.56 19.02, 18.07 19.43 C17.58 19.84, 17.05 20.21, 16.5 20.53 C15.95 20.84, 15.36 21.12, 14.76 21.34 C14.16 21.55, 13.54 21.72, 12.91 21.83 C12.28 21.94, 11.64 22, 11 22 C10.36 22, 9.72 21.94, 9.09 21.83 C8.46 21.72, 7.84 21.55, 7.24 21.34 C6.64 21.12, 6.05 20.84, 5.5 20.53 C4.95 20.21, 4.42 19.84, 3.93 19.43 C3.44 19.02, 2.98 18.56, 2.57 18.07 C2.16 17.58, 1.79 17.05, 1.47 16.5 C1.16 15.95, 0.88 15.36, 0.66 14.76 C0.45 14.16, 0.28 13.54, 0.17 12.91 C0.06 12.28, 0 11.64, 0 11 C0 10.36, 0.06 9.72, 0.17 9.09 C0.28 8.46, 0.45 7.84, 0.66 7.24 C0.88 6.64, 1.16 6.05, 1.47 5.5 C1.79 4.95, 2.16 4.42, 2.57 3.93 C2.98 3.44, 3.44 2.98, 3.93 2.57 C4.42 2.16, 4.95 1.79, 5.5 1.47 C6.05 1.16, 6.64 0.88, 7.24 0.66 C7.84 0.45, 8.46 0.28, 9.09 0.17 C9.72 0.06, 10.36 0, 11 0 C11.64 0, 12.28 0.06, 12.91 0.17 C13.54 0.28, 14.16 0.45, 14.76 0.66 C15.36 0.88, 15.95 1.16, 16.5 1.47 C17.05 1.79, 17.58 2.16, 18.07 2.57 C18.56 2.98, 19.02 3.44, 19.43 3.93 C19.84 4.42, 20.21 4.95, 20.53 5.5 C20.84 6.05, 21.12 6.64, 21.34 7.24 C21.55 7.84, 21.72 8.46, 21.83 9.09 C21.94 9.72, 21.97 10.68, 22 11 C22.03 11.32, 22.03 10.68, 22 11" stroke="none" stroke-width="0" fill="#d0bfff"></path><path d="M22 11 C22 11.64, 21.94 12.28, 21.83 12.91 C21.72 13.54, 21.55 14.16, 21.34 14.76 C21.12 15.36, 20.84 15.95, 20.53 16.5 C20.21 17.05, 19.84 17.58, 19.43 18.07 C19.02 18.56, 18.56 19.02, 18.07 19.43 C17.58 19.84, 17.05 20.21, 16.5 20.53 C15.95 20.84, 15.36 21.12, 14.76 21.34 C14.16 21.55, 13.54 21.72, 12.91 21.83 C12.28 21.94, 11.64 22, 11 22 C10.36 22, 9.72 21.94, 9.09 21.83 C8.46 21.72, 7.84 21.55, 7.24 21.34 C6.64 21.12, 6.05 20.84, 5.5 20.53 C4.95 20.21, 4.42 19.84, 3.93 19.43 C3.44 19.02, 2.98 18.56, 2.57 18.07 C2.16 17.58, 1.79 17.05, 1.47 16.5 C1.16 15.95, 0.88 15.36, 0.66 14.76 C0.45 14.16, 0.28 13.54, 0.17 12.91 C0.06 12.28, 0 11.64, 0 11 C0 10.36, 0.06 9.72, 0.17 9.09 C0.28 8.46, 0.45 7.84, 0.66 7.24 C0.88 6.64, 1.16 6.05, 1.47 5.5 C1.79 4.95, 2.16 4.42, 2.57 3.93 C2.98 3.44, 3.44 2.98, 3.93 2.57 C4.42 2.16, 4.95 1.79, 5.5 1.47 C6.05 1.16, 6.64 0.88, 7.24 0.66 C7.84 0.45, 8.46 0.28, 9.09 0.17 C9.72 0.06, 10.36 0, 11 0 C11.64 0, 12.28 0.06, 12.91 0.17 C13.54 0.28, 14.16 0.45, 14.76 0.66 C15.36 0.88, 15.95 1.16, 16.5 1.47 C17.05 1.79, 17.58 2.16, 18.07 2.57 C18.56 2.98, 19.02 3.44, 19.43 3.93 C19.84 4.42, 20.21 4.95, 20.53 5.5 C20.84 6.05, 21.12 6.64, 21.34 7.24 C21.55 7.84, 21.72 8.46, 21.83 9.09 C21.94 9.72, 21.97 10.68, 22 11 C22.03 11.32, 22.03 10.68, 22 11" stroke="#ffffff" stroke-width="2" fill="none"></path></g><g transform="translate(144 506) rotate(0 10 7)"><text x="0" y="9.97021484375" font-family="Helvetica, Segoe UI Emoji" font-size="11px" fill="#868e96" text-anchor="start" style="white-space: pre;" direction="ltr" dominant-baseline="alphabetic">+6</text></g><g transform="translate(46 534) rotate(0 145 9)"><text x="0" y="12.51025390625" font-family="Helvetica, Segoe UI Emoji" font-size="13px" fill="#495057" text-anchor="start" style="white-space: pre;" direction="ltr" dominant-baseline="alphabetic">"A guilty pleasure banger"</text></g><g stroke-linecap="round" transform="translate(46 564) rotate(0 50 16)"><path d="M6 0 C25.19 0, 44.39 0, 94 0 M6 0 C35.49 0, 64.97 0, 94 0 M94 0 C98 0, 100 2, 100 6 M94 0 C98 0, 100 2, 100 6 M100 6 C100 12.69, 100 19.37, 100 26 M100 6 C100 13.48, 100 20.95, 100 26 M100 26 C100 30, 98 32, 94 32 M100 26 C100 30, 98 32, 94 32 M94 32 C62.31 32, 30.63 32, 6 32 M94 32 C62.68 32, 31.36 32, 6 32 M6 32 C2 32, 0 30, 0 26 M6 32 C2 32, 0 30, 0 26 M0 26 C0 21.17, 0 16.34, 0 6 M0 26 C0 18.82, 0 11.63, 0 6 M0 6 C0 2, 2 0, 6 0 M0 6 C0 2, 2 0, 6 0" stroke="#dee2e6" stroke-width="1" fill="none"></path></g><g transform="translate(56 570) rotate(0 40 9)"><text x="0" y="12.240234375" font-family="Helvetica, Segoe UI Emoji" font-size="12px" fill="#495057" text-anchor="start" style="white-space: pre;" direction="ltr" dominant-baseline="alphabetic">View Session</text></g><g stroke-linecap="round" transform="translate(248 564) rotate(0 50.5 16)"><path d="M6 0 C39.59 0, 73.19 0, 95 0 C99 0, 101 2, 101 6 C101 10.7, 101 15.39, 101 26 C101 30, 99 32, 95 32 C75.29 32, 55.59 32, 6 32 C2 32, 0 30, 0 26 C0 19.08, 0 12.16, 0 6 C0 2, 2 0, 6 0" stroke="none" stroke-width="0" fill="#d0bfff"></path><path d="M6 0 C25.41 0, 44.83 0, 95 0 M6 0 C30.84 0, 55.67 0, 95 0 M95 0 C99 0, 101 2, 101 6 M95 0 C99 0, 101 2, 101 6 M101 6 C101 13.39, 101 20.77, 101 26 M101 6 C101 13.06, 101 20.11, 101 26 M101 26 C101 30, 99 32, 95 32 M101 26 C101 30, 99 32, 95 32 M95 32 C60.16 32, 25.33 32, 6 32 M95 32 C60.51 32, 26.01 32, 6 32 M6 32 C2 32, 0 30, 0 26 M6 32 C2 32, 0 30, 0 26 M0 26 C0 21.7, 0 17.39, 0 6 M0 26 C0 19.76, 0 13.52, 0 6 M0 6 C0 2, 2 0, 6 0 M0 6 C0 2, 2 0, 6 0" stroke="transparent" stroke-width="2" fill="none"></path></g><g transform="translate(260 570) rotate(0 40 9)"><text x="40" y="12.240234375" font-family="Helvetica, Segoe UI Emoji" font-size="12px" fill="#6741d9" text-anchor="middle" style="white-space: pre;" direction="ltr" dominant-baseline="alphabetic">Results are in!</text></g></svg>