<svg version="1.1" xmlns="http://www.w3.org/2000/svg" viewBox="0 0 395 832" width="395" height="832"><!-- svg-source:excalidraw --><metadata></metadata><defs><style class="style-fonts">
      </style></defs><rect x="0" y="0" width="395" height="832" fill="#ffffff"></rect><g stroke-linecap="round" transform="translate(10 10) rotate(0 187.5 406)"><path d="M32 0 C155.92 0, 279.83 0, 343 0 C364.33 0, 375 10.67, 375 32 C375 283.02, 375 534.04, 375 780 C375 801.33, 364.33 812, 343 812 C236.58 812, 130.15 812, 32 812 C10.67 812, 0 801.33, 0 780 C0 537.61, 0 295.21, 0 32 C0 10.67, 10.67 0, 32 0" stroke="none" stroke-width="0" fill="#f8f9fa"></path><path d="M32 0 C94.34 0, 156.68 0, 343 0 M32 0 C156.21 0, 280.42 0, 343 0 M343 0 C364.33 0, 375 10.67, 375 32 M343 0 C364.33 0, 375 10.67, 375 32 M375 32 C375 293.97, 375 555.95, 375 780 M375 32 C375 295.45, 375 558.9, 375 780 M375 780 C375 801.33, 364.33 812, 343 812 M375 780 C375 801.33, 364.33 812, 343 812 M343 812 C228.79 812, 114.57 812, 32 812 M343 812 C224.19 812, 105.38 812, 32 812 M32 812 C10.67 812, 0 801.33, 0 780 M32 812 C10.67 812, 0 801.33, 0 780 M0 780 C0 569.86, 0 359.73, 0 32 M0 780 C0 599.23, 0 418.47, 0 32 M0 32 C0 10.67, 10.67 0, 32 0 M0 32 C0 10.67, 10.67 0, 32 0" stroke="#1e1e1e" stroke-width="2" fill="none"></path></g><g stroke-linecap="round" transform="translate(10 10) rotate(0 187.5 36)"><path d="M0 0 L375 0 L375 72 L0 72" stroke="none" stroke-width="0" fill="#ffffff"></path><path d="M0 0 C75.17 0, 150.34 0, 375 0 M0 0 C101.77 0, 203.53 0, 375 0 M375 0 C375 25.09, 375 50.18, 375 72 M375 0 C375 21.85, 375 43.7, 375 72 M375 72 C257.7 72, 140.4 72, 0 72 M375 72 C250.56 72, 126.13 72, 0 72 M0 72 C0 56.92, 0 41.84, 0 0 M0 72 C0 50.14, 0 28.27, 0 0" stroke="transparent" stroke-width="2" fill="none"></path></g><g stroke-linecap="round"><g transform="translate(38 40) rotate(0 -4 4)"><path d="M0 0 C-1.6 1.6, -3.21 3.21, -8 8 M0 0 C-2.75 2.75, -5.49 5.49, -8 8" stroke="#1e1e1e" stroke-width="2" fill="none"></path></g></g><mask></mask><g stroke-linecap="round"><g transform="translate(30 48) rotate(0 4 4)"><path d="M0 0 C1.6 1.6, 3.21 3.21, 8 8 M0 0 C1.72 1.72, 3.45 3.45, 8 8" stroke="#1e1e1e" stroke-width="2" fill="none"></path></g></g><mask></mask><g transform="translate(120 42) rotate(0 77.5 9)"><text x="77.5" y="13.3203125" font-family="Helvetica, Segoe UI Emoji" font-size="16px" fill="#1e1e1e" text-anchor="middle" style="white-space: pre;" direction="ltr" dominant-baseline="alphabetic">Friday Night Jams</text></g><g transform="translate(355 42) rotate(0 8 9)"><text x="8" y="13.3203125" font-family="Helvetica, Segoe UI Emoji" font-size="16px" fill="#868e96" text-anchor="middle" style="white-space: pre;" direction="ltr" dominant-baseline="alphabetic">⚙</text></g><g stroke-linecap="round"><g transform="translate(10 82) rotate(0 187.5 0)"><path d="M0 0 C75.18 0, 150.36 0, 375 0 M0 0 C140.75 0, 281.5 0, 375 0" stroke="#dee2e6" stroke-width="1" fill="none"></path></g></g><mask></mask><g stroke-opacity="0.25" fill-opacity="0.25" stroke-linecap="round" transform="translate(64 234) rotate(0 133.5 10)"><path d="M4 0 C96.44 0, 188.89 0, 263 0 C265.67 0, 267 1.33, 267 4 C267 6.65, 267 9.29, 267 16 C267 18.67, 265.67 20, 263 20 C207.69 20, 152.38 20, 4 20 C1.33 20, 0 18.67, 0 16 C0 11.66, 0 7.32, 0 4 C0 1.33, 1.33 0, 4 0" stroke="none" stroke-width="0" fill="#e9ecef"></path><path d="M4 0 C56.03 0, 108.06 0, 263 0 M4 0 C69.99 0, 135.97 0, 263 0 M263 0 C265.67 0, 267 1.33, 267 4 M263 0 C265.67 0, 267 1.33, 267 4 M267 4 C267 7.19, 267 10.37, 267 16 M267 4 C267 7.9, 267 11.81, 267 16 M267 16 C267 18.67, 265.67 20, 263 20 M267 16 C267 18.67, 265.67 20, 263 20 M263 20 C184.48 20, 105.97 20, 4 20 M263 20 C176.9 20, 90.8 20, 4 20 M4 20 C1.33 20, 0 18.67, 0 16 M4 20 C1.33 20, 0 18.67, 0 16 M0 16 C0 11.34, 0 6.68, 0 4 M0 16 C0 12.03, 0 8.07, 0 4 M0 4 C0 1.33, 1.33 0, 4 0 M0 4 C0 1.33, 1.33 0, 4 0" stroke="#dee2e6" stroke-width="1" fill="none"></path></g><g stroke-opacity="0.4" fill-opacity="0.4" stroke-linecap="round" transform="translate(54 258) rotate(0 143.5 12)"><path d="M5 0 C109.4 0, 213.81 0, 282 0 C285.33 0, 287 1.67, 287 5 C287 9.84, 287 14.68, 287 19 C287 22.33, 285.33 24, 282 24 C185.33 24, 88.67 24, 5 24 C1.67 24, 0 22.33, 0 19 C0 16.13, 0 13.26, 0 5 C0 1.67, 1.67 0, 5 0" stroke="none" stroke-width="0" fill="#f1f3f5"></path><path d="M5 0 C60.65 0, 116.3 0, 282 0 M5 0 C95.52 0, 186.03 0, 282 0 M282 0 C285.33 0, 287 1.67, 287 5 M282 0 C285.33 0, 287 1.67, 287 5 M287 5 C287 8.96, 287 12.92, 287 19 M287 5 C287 9.41, 287 13.82, 287 19 M287 19 C287 22.33, 285.33 24, 282 24 M287 19 C287 22.33, 285.33 24, 282 24 M282 24 C193.69 24, 105.37 24, 5 24 M282 24 C185.54 24, 89.07 24, 5 24 M5 24 C1.67 24, 0 22.33, 0 19 M5 24 C1.67 24, 0 22.33, 0 19 M0 19 C0 15.15, 0 11.3, 0 5 M0 19 C0 16.1, 0 13.21, 0 5 M0 5 C0 1.67, 1.67 0, 5 0 M0 5 C0 1.67, 1.67 0, 5 0" stroke="#dee2e6" stroke-width="1" fill="none"></path></g><g stroke-opacity="0.6" fill-opacity="0.6" stroke-linecap="round" transform="translate(44 286) rotate(0 153.5 14)"><path d="M6 0 C123.08 0, 240.17 0, 301 0 C305 0, 307 2, 307 6 C307 10.34, 307 14.68, 307 22 C307 26, 305 28, 301 28 C217.1 28, 133.21 28, 6 28 C2 28, 0 26, 0 22 C0 18.03, 0 14.06, 0 6 C0 2, 2 0, 6 0" stroke="none" stroke-width="0" fill="#f8f9fa"></path><path d="M6 0 C65.27 0, 124.53 0, 301 0 M6 0 C123.64 0, 241.27 0, 301 0 M301 0 C305 0, 307 2, 307 6 M301 0 C305 0, 307 2, 307 6 M307 6 C307 10.81, 307 15.61, 307 22 M307 6 C307 10.87, 307 15.74, 307 22 M307 22 C307 26, 305 28, 301 28 M307 22 C307 26, 305 28, 301 28 M301 28 C202.32 28, 103.65 28, 6 28 M301 28 C193.6 28, 86.2 28, 6 28 M6 28 C2 28, 0 26, 0 22 M6 28 C2 28, 0 26, 0 22 M0 22 C0 16.21, 0 10.42, 0 6 M0 22 C0 17.47, 0 12.93, 0 6 M0 6 C0 2, 2 0, 6 0 M0 6 C0 2, 2 0, 6 0" stroke="#dee2e6" stroke-width="1" fill="none"></path></g><g stroke-opacity="0.6" fill-opacity="0.6" transform="translate(160 292) rotate(0 37.5 6)"><text x="37.5" y="8.43017578125" font-family="Helvetica, Segoe UI Emoji" font-size="9px" fill="#adb5bd" text-anchor="middle" style="white-space: pre;" direction="ltr" dominant-baseline="alphabetic">Tape 3 · Results</text></g><g stroke-linecap="round" transform="translate(30 322) rotate(0 167.5 130)"><path d="M10 0 C134.53 0, 259.07 0, 325 0 C331.67 0, 335 3.33, 335 10 C335 59.62, 335 109.24, 335 250 C335 256.67, 331.67 260, 325 260 C253.62 260, 182.25 260, 10 260 C3.33 260, 0 256.67, 0 250 C0 160.68, 0 71.36, 0 10 C0 3.33, 3.33 0, 10 0" stroke="none" stroke-width="0" fill="#ffffff"></path><path d="M10 0 C73.42 0, 136.85 0, 325 0 M10 0 C135.42 0, 260.83 0, 325 0 M325 0 C331.67 0, 335 3.33, 335 10 M325 0 C331.67 0, 335 3.33, 335 10 M335 10 C335 70.17, 335 130.33, 335 250 M335 10 C335 71.59, 335 133.17, 335 250 M335 250 C335 256.67, 331.67 260, 325 260 M335 250 C335 256.67, 331.67 260, 325 260 M325 260 C229.95 260, 134.9 260, 10 260 M325 260 C215.98 260, 106.96 260, 10 260 M10 260 C3.33 260, 0 256.67, 0 250 M10 260 C3.33 260, 0 256.67, 0 250 M0 250 C0 191.73, 0 133.46, 0 10 M0 250 C0 172, 0 94, 0 10 M0 10 C0 3.33, 3.33 0, 10 0 M0 10 C0 3.33, 3.33 0, 10 0" stroke="#ced4da" stroke-width="1" fill="none"></path></g><g transform="translate(46 336) rotate(0 22.5 6)"><text x="0" y="8.7001953125" font-family="Helvetica, Segoe UI Emoji" font-size="10px" fill="#adb5bd" text-anchor="start" style="white-space: pre;" direction="ltr" dominant-baseline="alphabetic">TAPE 4</text></g><g stroke-linecap="round" transform="translate(228 332) rotate(0 60 10)"><path d="M4 0 C30.36 0, 56.71 0, 116 0 C118.67 0, 120 1.33, 120 4 C120 7.09, 120 10.18, 120 16 C120 18.67, 118.67 20, 116 20 C82.69 20, 49.37 20, 4 20 C1.33 20, 0 18.67, 0 16 C0 12.9, 0 9.79, 0 4 C0 1.33, 1.33 0, 4 0" stroke="none" stroke-width="0" fill="#d3f9d8"></path><path d="M4 0 C26.55 0, 49.1 0, 116 0 M4 0 C42.32 0, 80.64 0, 116 0 M116 0 C118.67 0, 120 1.33, 120 4 M116 0 C118.67 0, 120 1.33, 120 4 M120 4 C120 7.43, 120 10.86, 120 16 M120 4 C120 6.83, 120 9.66, 120 16 M120 16 C120 18.67, 118.67 20, 116 20 M120 16 C120 18.67, 118.67 20, 116 20 M116 20 C78.69 20, 41.39 20, 4 20 M116 20 C73.69 20, 31.39 20, 4 20 M4 20 C1.33 20, 0 18.67, 0 16 M4 20 C1.33 20, 0 18.67, 0 16 M0 16 C0 13.4, 0 10.81, 0 4 M0 16 C0 12.67, 0 9.33, 0 4 M0 4 C0 1.33, 1.33 0, 4 0 M0 4 C0 1.33, 1.33 0, 4 0" stroke="transparent" stroke-width="2" fill="none"></path></g><g transform="translate(234 335) rotate(0 54 6)"><text x="54" y="8.7001953125" font-family="Helvetica, Segoe UI Emoji" font-size="10px" fill="#2b8a3e" text-anchor="middle" style="white-space: pre;" direction="ltr" dominant-baseline="alphabetic">Submitting · 1d 4h</text></g><g transform="translate(46 374) rotate(0 151.5 24)"><text x="0" y="16.8603515625" font-family="Helvetica, Segoe UI Emoji" font-size="18px" fill="#1e1e1e" text-anchor="start" style="white-space: pre;" direction="ltr" dominant-baseline="alphabetic">A song that</text><text x="0" y="40.8603515625" font-family="Helvetica, Segoe UI Emoji" font-size="18px" fill="#1e1e1e" text-anchor="start" style="white-space: pre;" direction="ltr" dominant-baseline="alphabetic">changed your life</text></g><g transform="translate(46 438) rotate(0 50 6)"><text x="0" y="8.7001953125" font-family="Helvetica, Segoe UI Emoji" font-size="10px" fill="#adb5bd" text-anchor="start" style="white-space: pre;" direction="ltr" dominant-baseline="alphabetic">5/8 submitted</text></g><g stroke-linecap="round" transform="translate(46 456) rotate(0 151.5 1.5)"><path d="M0.75 0 C95.75 0, 190.75 0, 302.25 0 C302.75 0, 303 0.25, 303 0.75 C303 1.07, 303 1.39, 303 2.25 C303 2.75, 302.75 3, 302.25 3 C183.66 3, 65.06 3, 0.75 3 C0.25 3, 0 2.75, 0 2.25 C0 1.85, 0 1.46, 0 0.75 C0 0.25, 0.25 0, 0.75 0" stroke="none" stroke-width="0" fill="#e9ecef"></path><path d="M0.75 0 C61.48 0, 122.21 0, 302.25 0 M0.75 0 C106.29 0, 211.83 0, 302.25 0 M302.25 0 C302.75 0, 303 0.25, 303 0.75 M302.25 0 C302.75 0, 303 0.25, 303 0.75 M303 0.75 C303 1.25, 303 1.74, 303 2.25 M303 0.75 C303 1.18, 303 1.62, 303 2.25 M303 2.25 C303 2.75, 302.75 3, 302.25 3 M303 2.25 C303 2.75, 302.75 3, 302.25 3 M302.25 3 C195.97 3, 89.69 3, 0.75 3 M302.25 3 C181.88 3, 61.52 3, 0.75 3 M0.75 3 C0.25 3, 0 2.75, 0 2.25 M0.75 3 C0.25 3, 0 2.75, 0 2.25 M0 2.25 C0 1.9, 0 1.55, 0 0.75 M0 2.25 C0 1.73, 0 1.21, 0 0.75 M0 0.75 C0 0.25, 0.25 0, 0.75 0 M0 0.75 C0 0.25, 0.25 0, 0.75 0" stroke="transparent" stroke-width="2" fill="none"></path></g><g stroke-linecap="round" transform="translate(46 456) rotate(0 94.5 1.5)"><path d="M0.75 0 C63.58 0, 126.41 0, 188.25 0 C188.75 0, 189 0.25, 189 0.75 C189 1.26, 189 1.76, 189 2.25 C189 2.75, 188.75 3, 188.25 3 C126.61 3, 64.96 3, 0.75 3 C0.25 3, 0 2.75, 0 2.25 C0 1.79, 0 1.33, 0 0.75 C0 0.25, 0.25 0, 0.75 0" stroke="none" stroke-width="0" fill="#2b8a3e"></path><path d="M0.75 0 C38.52 0, 76.28 0, 188.25 0 M0.75 0 C42.38 0, 84.01 0, 188.25 0 M188.25 0 C188.75 0, 189 0.25, 189 0.75 M188.25 0 C188.75 0, 189 0.25, 189 0.75 M189 0.75 C189 1.27, 189 1.79, 189 2.25 M189 0.75 C189 1.17, 189 1.59, 189 2.25 M189 2.25 C189 2.75, 188.75 3, 188.25 3 M189 2.25 C189 2.75, 188.75 3, 188.25 3 M188.25 3 C119.22 3, 50.18 3, 0.75 3 M188.25 3 C147.93 3, 107.61 3, 0.75 3 M0.75 3 C0.25 3, 0 2.75, 0 2.25 M0.75 3 C0.25 3, 0 2.75, 0 2.25 M0 2.25 C0 1.77, 0 1.29, 0 0.75 M0 2.25 C0 1.91, 0 1.58, 0 0.75 M0 0.75 C0 0.25, 0.25 0, 0.75 0 M0 0.75 C0 0.25, 0.25 0, 0.75 0" stroke="transparent" stroke-width="2" fill="none"></path></g><g stroke-linecap="round"><g transform="translate(46 474) rotate(0 151.5 0)"><path d="M0 0 C61.04 0, 122.07 0, 303 0 M0 0 C72.12 0, 144.24 0, 303 0" stroke="#e9ecef" stroke-width="1" fill="none"></path></g></g><mask></mask><g transform="translate(46 486) rotate(0 30 6)"><text x="0" y="8.7001953125" font-family="Helvetica, Segoe UI Emoji" font-size="10px" fill="#adb5bd" text-anchor="start" style="white-space: pre;" direction="ltr" dominant-baseline="alphabetic">Your pick</text></g><g transform="translate(46 504) rotate(0 115 8)"><text x="0" y="11.51025390625" font-family="Helvetica, Segoe UI Emoji" font-size="13px" fill="#1e1e1e" text-anchor="start" style="white-space: pre;" direction="ltr" dominant-baseline="alphabetic">Heroes — David Bowie</text></g><g transform="translate(306 504) rotate(0 20 7)"><text x="40" y="9.97021484375" font-family="Helvetica, Segoe UI Emoji" font-size="11px" fill="#1971c2" text-anchor="end" style="white-space: pre;" direction="ltr" dominant-baseline="alphabetic">Change</text></g><g transform="translate(46 532) rotate(0 75 6)"><text x="0" y="8.7001953125" font-family="Helvetica, Segoe UI Emoji" font-size="10px" fill="#ced4da" text-anchor="start" style="white-space: pre;" direction="ltr" dominant-baseline="alphabetic">Waiting for 3 more</text></g><g stroke-opacity="0.6" fill-opacity="0.6" stroke-linecap="round" transform="translate(44 590) rotate(0 153.5 14)"><path d="M6 0 C122.17 0, 238.34 0, 301 0 C305 0, 307 2, 307 6 C307 11.48, 307 16.95, 307 22 C307 26, 305 28, 301 28 C192.21 28, 83.41 28, 6 28 C2 28, 0 26, 0 22 C0 17.26, 0 12.52, 0 6 C0 2, 2 0, 6 0" stroke="none" stroke-width="0" fill="#f8f9fa"></path><path d="M6 0 C65.53 0, 125.06 0, 301 0 M6 0 C123.27 0, 240.54 0, 301 0 M301 0 C305 0, 307 2, 307 6 M301 0 C305 0, 307 2, 307 6 M307 6 C307 9.21, 307 12.43, 307 22 M307 6 C307 9.34, 307 12.68, 307 22 M307 22 C307 26, 305 28, 301 28 M307 22 C307 26, 305 28, 301 28 M301 28 C221.65 28, 142.3 28, 6 28 M301 28 C204.2 28, 107.4 28, 6 28 M6 28 C2 28, 0 26, 0 22 M6 28 C2 28, 0 26, 0 22 M0 22 C0 16.82, 0 11.64, 0 6 M0 22 C0 16.13, 0 10.27, 0 6 M0 6 C0 2, 2 0, 6 0 M0 6 C0 2, 2 0, 6 0" stroke="#dee2e6" stroke-width="1" fill="none"></path></g><g stroke-opacity="0.6" fill-opacity="0.6" transform="translate(156 596) rotate(0 42.5 6)"><text x="42.5" y="8.43017578125" font-family="Helvetica, Segoe UI Emoji" font-size="9px" fill="#adb5bd" text-anchor="middle" style="white-space: pre;" direction="ltr" dominant-baseline="alphabetic">Tape 5 · Upcoming</text></g><g stroke-opacity="0.4" fill-opacity="0.4" stroke-linecap="round" transform="translate(54 622) rotate(0 143.5 12)"><path d="M5 0 C69.75 0, 134.5 0, 282 0 C285.33 0, 287 1.67, 287 5 C287 10.5, 287 16.01, 287 19 C287 22.33, 285.33 24, 282 24 C215.62 24, 149.24 24, 5 24 C1.67 24, 0 22.33, 0 19 C0 13.64, 0 8.28, 0 5 C0 1.67, 1.67 0, 5 0" stroke="none" stroke-width="0" fill="#f1f3f5"></path><path d="M5 0 C60.9 0, 116.8 0, 282 0 M5 0 C99.6 0, 194.2 0, 282 0 M282 0 C285.33 0, 287 1.67, 287 5 M282 0 C285.33 0, 287 1.67, 287 5 M287 5 C287 8.3, 287 11.61, 287 19 M287 5 C287 10.43, 287 15.86, 287 19 M287 19 C287 22.33, 285.33 24, 282 24 M287 19 C287 22.33, 285.33 24, 282 24 M282 24 C198.81 24, 115.61 24, 5 24 M282 24 C182.34 24, 82.69 24, 5 24 M5 24 C1.67 24, 0 22.33, 0 19 M5 24 C1.67 24, 0 22.33, 0 19 M0 19 C0 14.84, 0 10.67, 0 5 M0 19 C0 14.53, 0 10.05, 0 5 M0 5 C0 1.67, 1.67 0, 5 0 M0 5 C0 1.67, 1.67 0, 5 0" stroke="#dee2e6" stroke-width="1" fill="none"></path></g><g stroke-opacity="0.25" fill-opacity="0.25" stroke-linecap="round" transform="translate(64 650) rotate(0 133.5 10)"><path d="M4 0 C69.72 0, 135.44 0, 263 0 C265.67 0, 267 1.33, 267 4 C267 7.82, 267 11.64, 267 16 C267 18.67, 265.67 20, 263 20 C165.86 20, 68.72 20, 4 20 C1.33 20, 0 18.67, 0 16 C0 13.29, 0 10.58, 0 4 C0 1.33, 1.33 0, 4 0" stroke="none" stroke-width="0" fill="#e9ecef"></path><path d="M4 0 C56.27 0, 108.54 0, 263 0 M4 0 C59.3 0, 114.6 0, 263 0 M263 0 C265.67 0, 267 1.33, 267 4 M263 0 C265.67 0, 267 1.33, 267 4 M267 4 C267 7.04, 267 10.08, 267 16 M267 4 C267 8.53, 267 13.06, 267 16 M267 16 C267 18.67, 265.67 20, 263 20 M267 16 C267 18.67, 265.67 20, 263 20 M263 20 C181.15 20, 99.31 20, 4 20 M263 20 C165.72 20, 68.44 20, 4 20 M4 20 C1.33 20, 0 18.67, 0 16 M4 20 C1.33 20, 0 18.67, 0 16 M0 16 C0 11.39, 0 6.78, 0 4 M0 16 C0 11.25, 0 6.5, 0 4 M0 4 C0 1.33, 1.33 0, 4 0 M0 4 C0 1.33, 1.33 0, 4 0" stroke="#dee2e6" stroke-width="1" fill="none"></path></g></svg>